<svg width="116" height="31" viewBox="0 0 116 31" fill="none" xmlns="http://www.w3.org/2000/svg">
<g clip-path="url(#clip0_111_421)">
<mask id="mask0_111_421" style="mask-type:luminance" maskUnits="userSpaceOnUse" x="-30" y="-391" width="692" height="472">
<path d="M-29.4738 80.4054H661.405V-390.245H-29.4738V80.4054Z" fill="white"/>
</mask>
<g mask="url(#mask0_111_421)">
<path d="M34.3878 29.7677H24.0206L17.7258 18.9948H28.0915L34.3878 29.7677Z" fill="#800000"/>
<path d="M17.6886 1.41573L22.887 10.1896L11.404 29.7679H1.05664L17.6886 1.41573Z" fill="#800000"/>
<path d="M40.8207 15.286L39.0736 12.0011L37.2407 15.286H40.8207ZM41.5419 16.6585H36.5011L35.1904 18.9947H33.2698L39.1077 8.72667L44.7334 18.9947H42.7872L41.5419 16.6585Z" fill="#800000"/>
<path d="M48.676 13.9526L45.4263 9.34876H47.4521L49.7075 12.6072L52.0661 9.34876H54.1077L50.7161 13.9526L54.2812 18.9947H52.2871L49.68 15.298L46.985 18.9947H44.9725L48.676 13.9526Z" fill="#800000"/>
<path d="M57.6529 18.9949H55.8773V9.34848H57.6524L57.6529 18.9949Z" fill="#800000"/>
<path d="M66.5327 10.7681L65.0826 11.4738C64.8121 11.0906 64.5589 10.8407 64.3104 10.723C64.0562 10.5887 63.7305 10.5231 63.3263 10.5231C62.8363 10.5231 62.429 10.6383 62.0962 10.8717C61.7721 11.0941 61.6093 11.3751 61.6098 11.7153C61.6098 12.1926 62.0391 12.5693 62.8904 12.8543L64.0674 13.2525C65.0239 13.5601 65.7226 13.9543 66.1703 14.4066C66.6194 14.8665 66.8328 15.424 66.8328 16.0937C66.8328 16.9778 66.474 17.7171 65.7466 18.2871C65.0234 18.8767 64.1128 19.1677 63.0344 19.1677C62.011 19.1677 61.1642 18.9213 60.5017 18.4189C59.8392 17.9155 59.4355 17.2202 59.2686 16.3251L61.0698 15.9985C61.1556 16.569 61.2918 16.9527 61.5016 17.1721C61.8645 17.5859 62.4066 17.7978 63.1053 17.7978C63.6642 17.7978 64.1205 17.6505 64.4854 17.3389C64.855 17.0379 65.0351 16.6497 65.0351 16.1848C65.0351 15.9985 65.0076 15.8242 64.931 15.6739C64.88 15.5106 64.7789 15.3719 64.6457 15.2396C64.5161 15.1154 64.3328 14.9817 64.1205 14.87C63.9082 14.7522 63.654 14.6526 63.359 14.5379L62.2223 14.1517C60.6003 13.5957 59.802 12.7802 59.802 11.7032C59.802 10.9769 60.1419 10.3788 60.8156 9.89247C61.4884 9.39758 62.3315 9.14562 63.3396 9.14662C64.6962 9.14662 65.7681 9.6876 66.5327 10.7681Z" fill="#800000"/>
<path d="M75.5842 17.6213H76.6852C77.4962 17.6213 78.0872 17.4946 78.4644 17.2406C78.8585 16.9576 79.0616 16.6045 79.0616 16.1802C79.0616 15.7604 78.8585 15.4093 78.4813 15.1183C78.1082 14.8548 77.4477 14.7055 76.4851 14.7055H75.5842V17.6213ZM75.5842 13.4888H76.1477C76.8071 13.4888 77.2966 13.3711 77.6013 13.1307C77.9055 12.8898 78.0638 12.5381 78.0638 12.0773C78.0638 11.6165 77.9055 11.2698 77.5921 11.0444C77.2716 10.8015 76.8168 10.6833 76.2141 10.6833H75.5842V13.4888ZM73.807 18.9948V9.34835H75.5842C76.3728 9.34835 77.0006 9.39143 77.4696 9.49412C77.9418 9.59079 78.3399 9.76761 78.6635 9.99452C78.9978 10.2505 79.253 10.5535 79.4505 10.9282C79.6547 11.2884 79.7537 11.668 79.7537 12.0462C79.7537 12.737 79.4255 13.321 78.7788 13.8014C79.4107 13.9752 79.8987 14.2818 80.2605 14.7201C80.6316 15.1513 80.8123 15.6502 80.8123 16.2368C80.8123 16.9841 80.4887 17.6213 79.8338 18.1457C79.4444 18.4673 79.0044 18.6932 78.516 18.8125C77.9795 18.9362 77.3119 18.9948 76.504 18.9948H73.807Z" fill="#800000"/>
<path d="M88.4634 15.286L86.7097 12.0011L84.8692 15.286H88.4634ZM89.1867 16.6585H84.1388L82.8266 18.9947H80.9049L86.7342 8.72667L92.3695 18.9947H90.4137L89.1867 16.6585Z" fill="#800000"/>
<path d="M93.5345 18.9949V8.67776L102.128 16.0536V9.34848H103.908V19.5835L95.3128 12.2327V18.9949H93.5345Z" fill="#800000"/>
<path d="M107.894 13.1997L112.487 9.34873H114.855L109.529 13.7191L114.892 18.9947H112.508L108.265 14.7014L107.894 15.0029V18.9947H106.111V9.34873H107.894V13.1997Z" fill="#800000"/>
</g>
</g>
<defs>
<clipPath id="clip0_111_421">
<rect width="116" height="31" fill="white"/>
</clipPath>
</defs>
</svg>
