<svg width="26" height="26" viewBox="0 0 26 26" fill="none" xmlns="http://www.w3.org/2000/svg">
<g id="uil:instagram">
<path id="Vector" d="M18.7851 5.91484C18.528 5.91484 18.2766 5.99108 18.0628 6.13393C17.8491 6.27677 17.6824 6.4798 17.584 6.71735C17.4856 6.95489 17.4599 7.21628 17.5101 7.46845C17.5602 7.72063 17.684 7.95227 17.8658 8.13408C18.0477 8.31588 18.2793 8.4397 18.5315 8.48986C18.7836 8.54002 19.045 8.51427 19.2826 8.41588C19.5201 8.31749 19.7231 8.15086 19.866 7.93708C20.0088 7.72329 20.0851 7.47195 20.0851 7.21484C20.0851 6.87006 19.9481 6.5394 19.7043 6.2956C19.4605 6.0518 19.1299 5.91484 18.7851 5.91484ZM23.7684 8.5365C23.7473 7.63766 23.579 6.74836 23.2701 5.904C22.9946 5.18156 22.5659 4.52739 22.0134 3.9865C21.477 3.43122 20.8213 3.0052 20.0959 2.74067C19.2538 2.42234 18.3635 2.25015 17.4634 2.2315C16.3151 2.1665 15.9467 2.1665 13.0001 2.1665C10.0534 2.1665 9.68508 2.1665 8.53675 2.2315C7.63666 2.25015 6.74637 2.42234 5.90425 2.74067C5.18023 3.00787 4.52509 3.43353 3.98675 3.9865C3.43146 4.52295 3.00544 5.17865 2.74091 5.904C2.42259 6.74613 2.25039 7.63642 2.23175 8.5365C2.16675 9.68484 2.16675 10.0532 2.16675 12.9998C2.16675 15.9465 2.16675 16.3148 2.23175 17.4632C2.25039 18.3633 2.42259 19.2535 2.74091 20.0957C3.00544 20.821 3.43146 21.4767 3.98675 22.0132C4.52509 22.5661 5.18023 22.9918 5.90425 23.259C6.74637 23.5773 7.63666 23.7495 8.53675 23.7682C9.68508 23.8332 10.0534 23.8332 13.0001 23.8332C15.9467 23.8332 16.3151 23.8332 17.4634 23.7682C18.3635 23.7495 19.2538 23.5773 20.0959 23.259C20.8213 22.9945 21.477 22.5685 22.0134 22.0132C22.5683 21.4743 22.9974 20.8195 23.2701 20.0957C23.579 19.2513 23.7473 18.362 23.7684 17.4632C23.7684 16.3148 23.8334 15.9465 23.8334 12.9998C23.8334 10.0532 23.8334 9.68484 23.7684 8.5365ZM21.8184 17.3332C21.8105 18.0208 21.686 18.7022 21.4501 19.3482C21.2771 19.8196 20.9993 20.2456 20.6376 20.594C20.2862 20.9521 19.8611 21.2293 19.3917 21.4065C18.7458 21.6424 18.0644 21.7669 17.3767 21.7748C16.2934 21.829 15.8926 21.8398 13.0434 21.8398C10.1942 21.8398 9.79341 21.8398 8.71008 21.7748C7.99605 21.7882 7.28506 21.6783 6.60841 21.4498C6.15968 21.2636 5.75405 20.987 5.41675 20.6373C5.05718 20.2893 4.78283 19.863 4.61508 19.3915C4.35059 18.7362 4.20389 18.0394 4.18175 17.3332C4.18175 16.2498 4.11675 15.849 4.11675 12.9998C4.11675 10.1507 4.11675 9.74984 4.18175 8.6665C4.1866 7.96348 4.31494 7.26678 4.56091 6.60817C4.75163 6.15091 5.04437 5.7433 5.41675 5.4165C5.74588 5.04402 6.15264 4.74819 6.60841 4.54984C7.26876 4.31155 7.96474 4.18701 8.66675 4.1815C9.75008 4.1815 10.1509 4.1165 13.0001 4.1165C15.8492 4.1165 16.2501 4.1165 17.3334 4.1815C18.0211 4.18939 18.7024 4.31394 19.3484 4.54984C19.8407 4.73254 20.2826 5.02959 20.6376 5.4165C20.9926 5.74928 21.27 6.15613 21.4501 6.60817C21.6909 7.26785 21.8155 7.96426 21.8184 8.6665C21.8726 9.74984 21.8834 10.1507 21.8834 12.9998C21.8834 15.849 21.8726 16.2498 21.8184 17.3332ZM13.0001 7.44234C11.9014 7.44448 10.828 7.77224 9.91546 8.38421C9.00296 8.99617 8.29232 9.86488 7.87335 10.8806C7.45438 11.8963 7.34587 13.0133 7.56152 14.0907C7.77718 15.168 8.30734 16.1572 9.085 16.9334C9.86266 17.7095 10.8529 18.2378 11.9307 18.4513C13.0084 18.6649 14.1253 18.5542 15.1402 18.1333C16.155 17.7123 17.0224 17 17.6326 16.0863C18.2427 15.1726 18.5684 14.0985 18.5684 12.9998C18.5698 12.2687 18.4267 11.5445 18.1473 10.8689C17.8678 10.1933 17.4575 9.57955 16.94 9.06306C16.4225 8.54657 15.808 8.13749 15.1319 7.85934C14.4557 7.5812 13.7312 7.43948 13.0001 7.44234ZM13.0001 16.6073C12.2866 16.6073 11.5891 16.3958 10.9959 15.9994C10.4026 15.603 9.94023 15.0396 9.66719 14.3804C9.39414 13.7212 9.3227 12.9958 9.4619 12.296C9.60109 11.5963 9.94467 10.9535 10.4492 10.4489C10.9537 9.94443 11.5965 9.60085 12.2963 9.46165C12.9961 9.32246 13.7214 9.3939 14.3806 9.66694C15.0398 9.93998 15.6032 10.4024 15.9996 10.9956C16.396 11.5889 16.6076 12.2863 16.6076 12.9998C16.6076 13.4736 16.5143 13.9427 16.333 14.3804C16.1517 14.818 15.886 15.2157 15.551 15.5507C15.216 15.8857 14.8183 16.1514 14.3806 16.3327C13.9429 16.514 13.4738 16.6073 13.0001 16.6073Z" fill="#F9F4F0"/>
</g>
</svg>
