<svg width="70" height="66" viewBox="0 0 70 66" fill="none" xmlns="http://www.w3.org/2000/svg">
<g clip-path="url(#clip0_111_164)">
<path fill-rule="evenodd" clip-rule="evenodd" d="M68.1568 52.9666C67.141 52.9666 66.3143 52.1452 66.3143 51.1263C66.3143 50.1146 67.141 49.2859 68.1568 49.2859C69.1725 49.2859 70 50.1146 70 51.1263C70 52.1452 69.1725 52.9666 68.1568 52.9666ZM68.1568 49.6376C67.331 49.6376 66.6611 50.304 66.6611 51.1263C66.6611 51.9549 67.331 52.6222 68.1568 52.6222C68.9843 52.6222 69.6524 51.9549 69.6524 51.1263C69.6524 50.304 68.9843 49.6376 68.1568 49.6376ZM68.6259 52.1669L68.1027 51.2724H67.7984V52.1669H67.4517V50.0848H68.2225C68.7357 50.0848 69.0114 50.257 69.0114 50.6953C69.0114 51.0731 68.7736 51.2228 68.4503 51.257L69.0248 52.1669H68.6259ZM68.661 50.6655C68.661 50.4176 68.426 50.3716 68.2225 50.3716H67.7984V50.9838H68.2161C68.4611 50.9838 68.661 50.9487 68.661 50.6655ZM0 0H64.516V52.9106H0V0ZM0.48203 62.779C0.724307 62.5382 0.94666 62.3967 1.31858 62.3967C1.92905 62.3967 2.35317 62.8682 2.35317 63.5436C2.35317 64.3344 1.84085 64.8421 1.05558 64.8421C0.776509 64.8421 0.54871 64.7898 0.23351 64.6644V61.2235H0.48203V62.779ZM0.48203 64.4868C0.688178 64.5653 0.869222 64.5959 1.05027 64.5959C1.65529 64.5959 2.08937 64.1613 2.08937 63.5589C2.08937 63.0045 1.75345 62.6059 1.28789 62.6059C0.998861 62.6059 0.761233 62.7421 0.48203 63.0621V64.4868ZM2.94717 62.4437L3.78996 64.0884L4.59144 62.4437H4.84448L3.1075 66H2.85446L3.66577 64.34L2.68869 62.4437H2.94717ZM8.46283 60.5012H12.5645V56.9242H14.2259V64.979H13.5893C13.4938 64.979 13.3894 64.9692 13.2705 64.9484C13.148 64.9259 13.0354 64.8844 12.9329 64.8231C12.8275 64.76 12.7383 64.6716 12.6681 64.5597C12.5979 64.4443 12.5627 64.2946 12.5627 64.1125L12.5645 61.2235H8.46283V64.979H6.80235V56.9242H8.46283V60.5012ZM20.5261 56.7452L24.6818 64.9786H23.6588C23.4067 64.9786 23.1987 64.9326 23.0393 64.8289C22.8808 64.7279 22.7458 64.5629 22.6376 64.3392L21.6805 62.4178H18.6548L19.0763 61.5964H21.2626L19.9011 58.8885L16.7503 64.9777H15.7806L20.0398 56.7452H20.5261ZM31.3729 57.3205C32.1959 57.738 32.5444 58.325 32.5444 59.0689C32.5444 59.8137 32.105 60.6919 30.5301 61.1337L33.7024 64.9777H32.4301C32.4301 64.9777 32.1625 64.9795 31.8511 64.8721C31.5394 64.7649 31.2027 64.332 31.2027 64.332L28.7543 61.296H27.9033V64.9767H26.2428V56.9229H29.2909C29.2909 56.9229 30.549 56.903 31.3729 57.3205ZM27.8988 57.6306V60.6821H28.6669C28.6669 60.6821 29.4296 60.6938 29.9249 60.4061C30.421 60.1184 30.7714 59.7182 30.7714 59.1203C30.7714 58.5224 30.3932 57.9923 29.8583 57.7831C29.8583 57.7831 29.5521 57.6306 29.0064 57.6306H27.8988ZM40.1489 62.8895L43.3987 56.9239H45.0233V64.9787H44.3866C44.2893 64.9787 44.1849 64.967 44.0669 64.9472C43.9462 64.9255 43.8328 64.8832 43.7291 64.8218C43.6238 64.7578 43.5347 64.6686 43.4663 64.5577C43.3951 64.4432 43.3574 64.2934 43.3574 64.1113V58.7805L39.9598 64.9787H39.5266L36.0382 58.7318V64.9787H35.1909V56.9239H36.8351L40.1489 62.8895ZM51.2868 56.745L55.438 64.9783H54.424C54.1719 64.9783 53.963 64.9315 53.8036 64.8277C53.646 64.7267 53.511 64.5617 53.403 64.3382L50.6609 58.8892L49.2625 61.5961H51.438L51.855 62.4175H48.8393L47.5183 64.9793H46.5475L50.7997 56.745H51.2868ZM63.5633 62.5575V57.3646C63.5633 57.2736 63.5822 57.1961 63.6191 57.1356C63.6534 57.0798 63.7001 57.0337 63.7559 56.9995C63.8073 56.9688 63.864 56.948 63.9234 56.9363C63.982 56.9274 64.0315 56.9237 64.0766 56.9237H64.5152V64.9786H64.3997C64.0928 64.9786 63.7766 64.9958 63.5471 64.7785L57.938 58.9057V64.9786H56.9691V56.9237H58.0352L63.5633 62.5575Z" fill="#FF3300"/>
<path fill-rule="evenodd" clip-rule="evenodd" d="M42.2011 37.4799H53.2482V30.4242H49.6013L49.604 34.2816C49.604 35.3159 48.7629 36.158 47.7255 36.158C46.6891 36.158 45.8471 35.3159 45.8471 34.2816V15.3216H42.2011V37.4799Z" fill="white"/>
<path fill-rule="evenodd" clip-rule="evenodd" d="M28.6146 37.4799V15.3216H35.904C37.3105 15.3216 39.5483 16.4785 39.5483 18.932V22.7065C39.5483 23.8102 38.5821 25.766 37.1466 25.766C38.5821 25.766 39.5483 27.0049 39.5483 27.9436V34.5855C39.5483 35.7152 38.6379 37.4799 35.904 37.4799H28.6146ZM34.2471 24.8615C35.5726 24.8615 35.904 24.638 35.904 21.1646C35.904 17.6921 35.5726 17.4154 34.2471 17.4154H32.2562V24.8562L34.2471 24.8615ZM35.904 31.2231C35.904 27.7488 35.904 26.7316 34.465 26.7316H32.2562V35.6593L34.465 35.6638C35.904 35.6638 35.904 34.6946 35.904 31.2231Z" fill="white"/>
<path fill-rule="evenodd" clip-rule="evenodd" d="M14.8031 33.6206C14.8031 35.2185 16.2393 37.809 20.3256 37.809C24.413 37.809 25.8502 35.8271 25.8502 33.6206V15.3216H22.2031L22.205 34.2563C22.205 35.2906 21.3657 36.158 20.3284 36.158C19.2901 36.158 18.449 35.3159 18.449 34.2816L18.4464 30.4242H14.8031V33.6206Z" fill="white"/>
<path fill-rule="evenodd" clip-rule="evenodd" d="M16.6256 28.0102C17.789 28.0102 18.7345 27.0661 18.7345 25.9057C18.7345 24.7398 17.789 23.7994 16.6256 23.7994C15.4586 23.7994 14.5158 24.7398 14.5158 25.9057C14.5158 27.0661 15.4586 28.0102 16.6256 28.0102Z" fill="white"/>
<path fill-rule="evenodd" clip-rule="evenodd" d="M16.6256 22.9824L19.9944 15.3216H13.256L16.6256 22.9824Z" fill="white"/>
</g>
<defs>
<clipPath id="clip0_111_164">
<rect width="70" height="66" fill="white"/>
</clipPath>
</defs>
</svg>
