<svg width="299" height="51" viewBox="0 0 299 51" fill="none" xmlns="http://www.w3.org/2000/svg">
<path fill-rule="evenodd" clip-rule="evenodd" d="M292.263 10.843C292.387 7.61616 291.706 4.8871 290.094 2.9018C285.136 -2.99113 273.297 0.979444 263.75 11.7107C254.142 22.4439 250.424 35.9042 255.319 41.7971C260.278 47.692 272.117 43.7824 281.725 33.0512C283.213 31.3138 284.639 29.5155 285.816 27.7151L270.011 26.1036L292.884 23.1247L267.654 19.5259L298.214 16.364L273.297 13.82L292.263 10.843Z" fill="#FCAF1E"/>
<path fill-rule="evenodd" clip-rule="evenodd" d="M232.695 10.8428C234.493 10.8428 236.166 11.3997 237.283 11.3997C237.592 11.3387 237.84 11.3996 237.84 11.8344C237.84 11.9584 237.779 12.0214 237.779 12.1453C237.779 12.7041 238.087 13.9437 238.087 15.4942C238.087 16.116 237.903 16.3009 237.468 16.3009C236.973 16.3009 236.849 15.992 236.786 15.6181C236.662 14.6875 236.538 14.2546 236.043 13.7568C235.237 12.8891 234.059 12.5172 232.386 12.5172C229.535 12.5172 228.047 14.1916 228.171 16.2379C228.295 18.5971 230.154 19.8367 233.44 21.761C237.963 24.553 239.328 26.3513 239.328 29.3913C239.328 32.6791 236.725 36.3388 230.278 36.3388C228.666 36.3388 227.054 36.0909 225.629 35.4691C225.07 35.2212 225.009 35.0973 225.009 34.0427C224.946 32.7401 224.946 31.0027 225.009 30.3829C225.133 30.011 225.194 29.7631 225.692 29.7631C226.063 29.7631 226.25 29.9481 226.311 30.4459C226.311 30.7548 226.372 31.3746 226.498 31.9334C227.178 34.4165 229.535 34.7254 231.145 34.7254C234.37 34.7254 236.229 32.7401 236.229 30.6309C236.229 27.9628 234.678 26.5362 230.339 24.0551C226 21.6369 225.133 19.0929 225.194 16.9207C225.318 13.2609 228.108 10.8428 232.695 10.8428ZM107.174 23.6204C107.174 22.1329 107.237 16.1159 107.237 11.6495C107.237 11.5235 107.174 11.3997 106.99 11.3997H101.782C101.162 11.3997 100.976 11.5236 100.976 12.0214C100.976 12.3933 101.101 12.5782 101.473 12.6412C103.207 12.7651 103.457 13.5718 103.518 15.6811C103.58 18.782 103.58 21.1392 103.58 23.6204C103.58 26.8472 103.518 31.0656 103.394 35.5321C103.394 35.717 103.518 35.843 103.641 35.843H106.99C107.174 35.843 107.237 35.717 107.237 35.5321C107.174 31.1286 107.174 27.282 107.174 23.6204ZM206.476 22.9396C207.095 23.9312 207.714 24.8008 208.212 25.6075C208.212 28.5215 208.149 31.9333 208.088 35.5321C208.088 35.717 208.149 35.843 208.336 35.843H211.621C211.806 35.843 211.929 35.717 211.929 35.5321C211.869 31.9333 211.806 28.6455 211.806 25.6075C214.595 21.1391 217.82 16.2379 220.794 11.7105C220.918 11.5235 220.855 11.3997 220.67 11.3997H215.96C215.401 11.3997 215.154 11.5236 215.154 12.0214C215.154 12.3933 215.339 12.5782 215.71 12.6412C216.703 12.8281 216.951 13.4479 216.392 14.3786C214.658 17.2945 212.736 20.3324 210.876 23.3114C210.38 22.5047 209.885 21.7609 209.389 20.9542C207.343 17.8513 205.67 15.1852 203.438 11.6495C203.314 11.4625 203.251 11.3997 202.943 11.3997H199.099C198.913 11.3997 198.852 11.5235 198.975 11.7105C201.641 15.6181 204.677 20.2085 206.476 22.9396ZM194.513 35.5321C194.636 35.717 194.697 35.843 194.884 35.843H198.541C198.728 35.843 198.789 35.717 198.728 35.5321C196.744 31.2526 194.636 26.4123 193.396 23.4353C190.98 17.8513 189.926 14.9373 188.748 11.6495C188.685 11.5235 188.561 11.3997 188.377 11.3997H184.346C183.788 11.3997 183.54 11.5236 183.54 12.0214C183.54 12.3933 183.727 12.5782 184.099 12.6412C184.905 12.7651 185.524 13.0761 185.524 14.1307C185.524 14.6875 185.276 15.3702 184.968 16.1159C183.851 18.9689 182.921 21.1391 181.93 23.4353C180.69 26.4123 178.582 31.2526 176.598 35.5321C176.537 35.717 176.598 35.843 176.785 35.843H179.077C179.264 35.843 179.388 35.717 179.451 35.5321C180.318 33.2988 181.124 31.3746 181.867 29.4523H186.949H192.033C192.839 31.5005 193.707 33.6097 194.513 35.5321ZM182.61 27.4669C182.982 26.5992 183.355 25.7315 183.664 24.8619C184.594 22.6287 185.463 20.5194 186.825 17.2316C188.253 20.5194 189.12 22.6287 190.05 24.8619C190.421 25.7315 190.793 26.5992 191.164 27.4669C189.678 27.4669 188.314 27.4669 186.949 27.4669C185.524 27.4669 184.162 27.4669 182.61 27.4669ZM170.276 11.3997C169.717 11.3997 169.469 11.5236 169.469 12.0214C169.469 12.3933 169.717 12.5782 170.028 12.6412C171.082 12.8281 171.329 13.6957 171.021 14.7504C170.028 17.4794 169.222 19.8996 168.355 22.3808C167.612 24.49 166.866 26.5363 165.813 29.5762C164.635 26.4123 163.892 24.553 163.086 22.3808C161.784 18.969 160.731 16.2379 159.181 12.0824C158.995 11.6495 158.871 11.3997 158.436 11.3997C158.004 11.3997 157.88 11.6495 157.693 12.0824C156.205 16.2379 155.214 18.969 153.973 22.3808C153.167 24.49 152.424 26.5363 151.247 29.5762C150.132 26.4123 149.45 24.553 148.643 22.3808C147.403 18.969 146.288 15.805 144.8 11.6495C144.737 11.5235 144.676 11.3997 144.491 11.3997H140.956C140.772 11.3997 140.709 11.4625 140.772 11.6495C142.445 15.805 144.304 20.7673 145.419 23.7462C147.466 29.3912 148.457 31.9334 149.697 35.4081C149.882 35.9669 150.008 36.2758 150.44 36.2758C150.936 36.2758 151.123 35.78 151.247 35.4081C152.3 32.4922 154.779 26.0404 155.648 23.7462C156.268 22.1328 156.95 20.4584 157.756 18.5341C158.623 20.6434 158.995 21.574 159.801 23.7462C161.969 29.3912 163.023 31.9334 164.326 35.4081C164.574 35.9669 164.698 36.2758 165.132 36.2758C165.628 36.2758 165.752 35.78 165.937 35.4081C166.929 32.4922 169.222 26.0404 170.091 23.7462C171.082 21.0782 173.252 15.4331 174.738 11.6495C174.862 11.5235 174.738 11.3997 174.554 11.3997H170.276ZM47.7319 11.3997C44.0751 11.3997 42.2153 11.3386 37.8134 11.2756C37.6895 11.2756 37.6266 11.3996 37.5657 11.5236L37.0702 13.6328C37.0702 13.8197 37.1312 13.9437 37.3789 13.9437C39.9839 13.8197 43.0823 13.6957 45.933 13.6328C45.9959 16.7357 45.9959 21.2022 45.9959 23.6204C45.9959 26.8472 45.933 31.0656 45.8092 35.5321C45.8092 35.717 45.8721 35.843 46.0569 35.843H49.405C49.5289 35.843 49.6527 35.717 49.6527 35.5321C49.5918 31.1286 49.5918 27.282 49.5918 23.6204C49.5918 22.3808 49.5918 17.6663 49.6527 13.6328C52.3796 13.6957 55.1084 13.8197 57.9591 13.9437C58.083 13.9437 58.2068 13.8827 58.2068 13.6958L58.7023 11.5865C58.7652 11.3996 58.6394 11.2756 58.5155 11.2756C54.0546 11.3386 51.3887 11.3997 47.7319 11.3997ZM92.2995 35.5321C92.3604 35.717 92.4843 35.843 92.6082 35.843H96.2649C96.4517 35.843 96.5756 35.717 96.4517 35.5321C94.468 31.2526 92.3604 26.4123 91.1219 23.4353C88.7037 17.8513 87.6499 14.9373 86.4722 11.6495C86.4093 11.5235 86.2855 11.3997 86.1007 11.3997H82.0703C81.5139 11.3997 81.2662 11.5236 81.2662 12.0214C81.2662 12.3933 81.451 12.5782 81.8226 12.6412C82.6287 12.7651 83.248 13.0761 83.248 14.1307C83.248 14.6875 83.0003 15.3702 82.6916 16.1159C81.5749 18.9689 80.645 21.1391 79.6541 23.4353C78.4135 26.4123 76.306 31.2526 74.3223 35.5321C74.2613 35.717 74.3223 35.843 74.509 35.843H76.8643C76.9882 35.843 77.1121 35.717 77.175 35.5321C78.042 33.2988 78.848 31.3746 79.5912 29.4523H84.6733H89.7574C90.5635 31.5005 91.4305 33.6097 92.2995 35.5321ZM80.3343 27.4669C80.7079 26.5992 81.0795 25.7315 81.3881 24.8619C82.32 22.6287 83.187 20.5194 84.5514 17.2316C85.9768 20.5194 86.9047 22.6287 87.8366 24.8619C88.1453 25.7315 88.5169 26.5992 88.8885 27.4669C87.4022 27.4669 86.1007 27.4669 84.6733 27.4669C83.248 27.4669 81.8855 27.4669 80.3343 27.4669ZM121.68 13.261C122.299 13.2 123.168 13.137 124.035 13.137C127.631 13.137 129.923 14.8114 129.923 18.721C129.923 21.7609 128.313 24.1792 124.593 24.1792C123.416 24.1792 122.238 23.9941 121.617 23.8072C121.617 21.7609 121.68 18.2252 121.68 13.261ZM125.832 25.9795C128.561 30.074 130.11 32.2443 132.031 33.9817C133.643 35.4082 135.564 36.0279 137.795 36.0279C139.531 36.0279 141.328 35.7801 141.328 35.2213C141.328 34.8494 141.019 34.7884 140.089 34.6625C138.23 34.3536 136.989 33.7947 134.82 31.8724C133.084 30.3219 131.101 27.7778 129.18 24.9248C131.598 23.6203 133.58 21.2021 133.58 18.0382C133.58 12.7651 128.498 11.3997 124.593 11.3997H116.224C115.668 11.3997 115.42 11.5236 115.42 12.0214C115.42 12.3933 115.605 12.5782 115.976 12.6412C117.651 12.7651 117.899 13.5718 117.96 15.6811C118.023 18.782 118.023 21.1392 118.023 23.6204C118.023 26.8472 118.023 31.0656 117.836 35.5321C117.836 35.717 117.96 35.843 118.147 35.843H121.432C121.617 35.843 121.68 35.717 121.68 35.5321C121.68 31.9963 121.617 28.7694 121.617 25.7925C122.733 25.9164 123.848 26.0404 125.275 25.9795H125.832ZM25.4786 33.6708C25.4157 30.259 25.4157 27.158 25.4157 24.2421C27.0278 24.3031 29.8786 24.5529 32.11 24.6749C32.2968 24.6749 32.3597 24.6139 32.4206 24.427L32.916 22.3198C32.916 22.1328 32.8551 22.0088 32.6683 22.0088C30.0653 22.1328 27.8968 22.1938 25.4157 22.1938C25.4157 20.1475 25.4157 16.6117 25.4786 13.4478C27.5233 13.5088 29.8176 13.7568 32.7312 13.9437C32.916 13.9437 32.979 13.8827 33.0399 13.6958L33.5353 11.5865C33.5353 11.3996 33.4744 11.2756 33.2876 11.2756C30.0024 11.3386 27.3385 11.3997 24.4248 11.3997H19.962C19.4036 11.3997 19.1559 11.5236 19.1559 12.0214C19.1559 12.3933 19.3427 12.5782 19.7143 12.6412C21.4483 12.7651 21.698 13.5718 21.7589 15.6811C21.8218 18.782 21.8218 21.1392 21.8218 23.6204C21.8218 26.8472 21.7589 31.0656 21.6351 35.5321C21.6351 35.717 21.698 35.843 21.8828 35.843H25.2309C27.9578 35.843 30.6846 35.904 33.5982 35.904C33.785 35.904 33.846 35.8429 33.9089 35.656L34.3414 33.5468C34.4043 33.3619 34.3414 33.2359 34.1566 33.2359C30.8085 33.4838 27.771 33.6098 25.4786 33.6708ZM11.0363 11.6495C11.0363 11.5235 10.9124 11.3997 10.7257 11.3997H5.26996C4.71358 11.3997 4.46585 11.5236 4.46585 12.0214C4.46585 12.3933 4.65066 12.5782 5.02421 12.6412C6.82114 12.8281 7.19271 13.3849 7.25562 15.6811C7.31657 18.782 7.31658 21.1392 7.31658 23.6204C7.31658 28.2127 7.31657 31.5006 7.25562 34.6625C7.19271 39.4398 6.945 42.4187 5.76736 44.7129C3.53593 48.9943 0.807098 48.9944 0.807098 49.7991C0.807098 50.173 1.11773 50.4209 1.42836 50.3579C2.606 50.11 10.9734 47.0091 10.9734 35.5951C10.9734 31.5615 10.9124 28.1498 10.9124 23.6204C10.9124 22.1329 10.9734 16.1159 11.0363 11.6495Z" fill="#00063F"/>
</svg>
