<svg width="220" height="33" viewBox="0 0 220 33" fill="none" xmlns="http://www.w3.org/2000/svg">
<g clip-path="url(#clip0_111_486)">
<path d="M16.406 0C7.35373 0 0 7.38615 0 16.501C0 25.6177 7.35373 32.9981 16.406 32.9981C25.4427 32.9981 32.7675 25.6837 32.8389 16.6271V16.371C32.7675 7.31436 25.4427 0 16.406 0Z" fill="url(#paint0_radial_111_486)"/>
<path d="M5.30008 5.33154C-0.185296 10.8454 -0.739239 19.2502 4.07446 24.0928C8.89395 28.9296 17.2475 28.3728 22.7348 22.8589C28.2317 17.3314 28.7857 8.93246 23.972 4.08985C21.7736 1.87614 18.836 0.791595 15.7652 0.791595C12.1153 0.791595 8.28597 2.32819 5.30008 5.33154Z" fill="url(#paint1_linear_111_486)"/>
<path d="M15.5645 23.8929L15.9717 23.6621L15.9678 9.72209L15.8694 9.55718L15.9698 9.53001V9.50673H16.0412L17.2707 9.08184L17.4888 9.46793C17.4888 9.46793 17.5197 9.49897 17.5197 9.5727L17.5061 22.269H20.492L20.7314 22.6435C20.7526 22.6726 20.768 22.6997 20.768 22.7968V24.0753C20.768 24.1471 20.7256 24.1781 20.6754 24.184H16.1087C15.9987 24.1859 15.9061 24.1355 15.8791 24.1199L15.5645 23.8929ZM30.3761 15.7385L20.2199 15.7443V17.3779L20.4727 17.7174C20.4727 17.7174 20.5055 17.7543 20.5615 17.7543H28.2993H29.0463H29.0501H29.0579C28.6197 24.2072 23.2 29.2633 16.7264 29.2633C13.424 29.2633 10.3223 27.977 7.9849 25.6488C5.65332 23.3148 4.37366 20.2183 4.37366 16.92C4.37366 13.6179 5.5877 10.4535 7.91734 8.12341C10.2624 5.80105 13.2097 4.57293 16.7437 4.49339L17.4116 4.48369H17.4849C17.5293 4.47981 17.5718 4.47787 17.5718 4.37504V3.03634C17.5718 2.93933 17.537 2.89082 17.537 2.89082L17.2379 2.51443L16.5604 2.61338L16.2188 2.72397C8.50603 2.72397 2.72534 9.20019 2.72534 16.92C2.72534 20.6509 4.18451 24.1684 6.82683 26.807C9.46529 29.4476 12.9646 30.7863 16.6974 30.7863C20.4476 30.7863 23.972 29.3642 26.6105 26.7236C29.2547 24.0811 30.712 20.5656 30.712 16.8308V16.0295L30.3761 15.7385ZM11.38 9.2778C10.1582 9.2778 9.16999 10.2673 9.16999 11.4837C9.16999 12.6983 10.1582 13.6839 11.38 13.6839C12.5979 13.6839 13.5861 12.6983 13.5861 11.4837C13.5861 10.2673 12.5979 9.2778 11.38 9.2778Z" fill="url(#paint2_linear_111_486)"/>
<path d="M15.9003 23.5748L15.5645 23.8929H20.4901L20.1678 23.5651L15.9003 23.5748Z" fill="#646E78"/>
<path d="M20.1678 22.5833L20.4901 22.269H17.2687L16.8846 22.5833H20.1678Z" fill="#8599A2"/>
<path d="M17.2687 9.08377H15.5645L15.8849 9.38837H16.904L17.2687 9.08377Z" fill="#8F9CA3"/>
<path d="M16.9155 22.5562L17.2687 22.269V9.08377L16.9039 9.38837L16.9155 22.5562Z" fill="url(#paint3_linear_111_486)"/>
<path d="M20.1677 22.5833V23.5651L20.4901 23.8929V22.269L20.1677 22.5833Z" fill="url(#paint4_linear_111_486)"/>
<path d="M15.5645 9.08377V23.8929L15.9003 23.5747L15.8849 9.38837L15.5645 9.08377Z" fill="#B4BDC3"/>
<path d="M9.02905 11.2315C9.02905 12.417 9.98832 13.3773 11.1734 13.3773C12.3566 13.3773 13.312 12.417 13.312 11.2315C13.312 10.0442 12.3566 9.07797 11.1734 9.07797C9.98832 9.07797 9.02905 10.0442 9.02905 11.2315ZM12.9954 11.2315C12.9954 12.2404 12.1751 13.0553 11.1734 13.0553C10.1659 13.0553 9.34559 12.2404 9.34559 11.2315C9.34559 10.2207 10.1659 9.40392 11.1734 9.40392C12.1771 9.40392 12.9954 10.2207 12.9954 11.2315Z" fill="url(#paint5_linear_111_486)"/>
<path d="M28.9903 17.0035L20.4804 16.9957L20.1639 17.3294H28.6641L28.832 17.1509L28.9903 17.0035Z" fill="#525E62"/>
<path d="M20.4804 16.0295L29.9978 16.0101L30.3201 15.6861L20.1639 15.69L20.4804 16.0295Z" fill="#919EA6"/>
<path d="M30.3201 16.4952V15.6861L29.9978 16.0101V16.4952C29.9978 20.1407 28.5869 23.5748 26.0218 26.159C23.4586 28.7356 20.0384 30.1635 16.4001 30.1635C12.7754 30.1635 9.36295 28.7356 6.79976 26.159C4.23271 23.5709 2.81794 20.1388 2.81794 16.4952C2.81794 8.95574 8.91131 2.82875 16.3982 2.82875L16.9193 2.82293L17.2359 2.51444L16.4001 2.50668C8.7376 2.50668 2.5014 8.77919 2.5014 16.4952C2.5014 20.2261 3.94706 23.7436 6.57394 26.3841C9.19503 29.0266 12.6885 30.4856 16.4001 30.4856C20.1253 30.4856 23.6226 29.0266 26.2476 26.3841C28.8745 23.7436 30.3201 20.228 30.3201 16.4952Z" fill="url(#paint6_linear_111_486)"/>
<path d="M16.9193 3.83957L16.5603 3.82986H16.2206C12.9298 3.88031 9.84355 5.19379 7.4946 7.53361C5.12057 9.92581 3.81195 13.1077 3.81195 16.4952C3.81195 19.8788 5.12057 23.0587 7.4946 25.4509C9.84355 27.8062 12.9452 29.1255 16.2477 29.1643H16.5681C23.1034 29.0809 28.5405 23.9221 28.9825 17.3546L28.9941 17.0035L28.832 17.1509L28.6641 17.3294C28.224 23.7882 22.8409 28.8442 16.4098 28.8442C13.1305 28.8442 10.0481 27.5598 7.72429 25.2258C5.41008 22.8918 4.13621 19.7934 4.13621 16.4971C4.13621 13.195 5.41008 10.0907 7.72429 7.76643C10.0539 5.44213 13.1325 4.15387 16.4098 4.15387L17.2378 4.16357L16.9193 3.83957Z" fill="url(#paint7_linear_111_486)"/>
<path d="M20.4804 16.0295L20.1639 15.69V17.3294L20.4804 16.9957V16.0295Z" fill="#B4BDC3"/>
<path d="M16.9213 3.8415L17.2378 4.16356V2.51443L16.9213 2.82292V3.8415Z" fill="url(#paint8_linear_111_486)"/>
<path d="M15.7458 9.26032V23.7222H20.3183V22.432H17.0564V9.26032H15.7458ZM16.2245 2.68127C8.74146 2.77052 2.66547 8.93244 2.66547 16.4951C2.66547 20.1853 4.09375 23.6523 6.68975 26.2618C9.27803 28.8713 12.7349 30.309 16.3905 30.309C20.0712 30.309 23.5223 28.8713 26.1163 26.2618C28.7104 23.6523 30.1348 20.1853 30.1348 16.4951V15.8685L29.5963 15.8704H20.3299V17.1509H28.8301C28.8301 17.1839 28.8301 17.3139 28.8262 17.3391C28.3842 23.8483 22.9876 29.0207 16.4001 29.0207C13.0765 29.0207 9.95164 27.715 7.59304 25.3461C5.24796 22.9888 3.95092 19.8438 3.95092 16.4971C3.95092 13.1484 5.24796 10.0015 7.59304 7.64224C9.95357 5.28301 13.0784 3.98117 16.4001 3.98117C16.5449 3.98117 16.9 3.98117 17.0564 3.98311V2.68904C16.9309 2.68904 16.7109 2.68515 16.5449 2.68127H16.2245Z" fill="url(#paint9_radial_111_486)"/>
<path d="M9.19122 11.2315C9.19122 12.3238 10.0771 13.2027 11.1619 13.2027C12.2466 13.2027 13.1325 12.3238 13.1325 11.2315C13.1325 10.1315 12.2485 9.25064 11.1619 9.25064C10.0752 9.25064 9.19122 10.1295 9.19122 11.2315Z" fill="url(#paint10_radial_111_486)"/>
<path d="M11.5208 9.60566C11.9705 9.60566 12.3797 9.76669 12.7155 10.0286C12.3565 9.55715 11.7949 9.25061 11.1618 9.25061C10.0752 9.25061 9.19116 10.1295 9.19116 11.2315C9.19116 11.8621 9.49612 12.4208 9.95742 12.7778C9.70264 12.448 9.54437 12.0386 9.54437 11.5865C9.54437 10.4904 10.4322 9.60566 11.5208 9.60566Z" fill="white"/>
<path d="M17.0564 2.68904C16.8846 2.68516 16.5565 2.6774 16.3905 2.6774C8.83217 2.6774 2.66547 8.87811 2.66547 16.4951C2.66547 20.1872 4.09761 23.6504 6.68782 26.2638C6.77081 26.3453 6.85767 26.4268 6.94066 26.5044C4.49521 23.924 3.14799 20.5617 3.14799 16.9802C3.14799 9.37867 8.5002 3.07125 17.0564 2.68904Z" fill="white"/>
<path d="M17.0564 22.4339C17.0564 22.4339 17.9964 22.7075 20.3183 22.7075V22.4339H17.0564Z" fill="white"/>
<path d="M17.0564 9.66581V9.26031H15.7458V23.7222C15.7458 23.7222 16.157 21.5221 16.157 9.66387L17.0564 9.66581Z" fill="white"/>
<path d="M30.1348 15.8685L20.3298 15.8704V17.147H20.685V16.2255C29.2315 16.2255 30.1348 15.8685 30.1348 15.8685Z" fill="white"/>
<path d="M28.832 17.1509C28.8301 17.18 28.8301 17.3158 28.8243 17.3449C28.3881 23.8483 22.9876 29.0188 16.3982 29.0188C13.0765 29.0188 9.94972 27.7131 7.59112 25.3442C6.05475 23.8056 4.97196 21.9217 4.40643 19.871C5.88297 25.2646 10.7874 29.1682 16.6144 29.1682C22.8718 29.1682 28.6371 24.2422 28.9941 17.1509H28.832Z" fill="white"/>
<path d="M81.9738 5.83792V27.1155H96.135V23.4215H86.3243V17.9619H95.4614V14.3494H86.3243V9.4757H95.7857V5.83792H81.9738ZM97.7949 27.1155H102.055V5.75062H97.7949V27.1155ZM117.123 19.126C117.123 14.8984 115.228 11.9416 110.526 11.9416C105.824 11.9416 103.371 14.7568 103.371 19.6285C103.371 24.7932 105.243 27.4648 110.729 27.4648C113.328 27.4648 115.722 26.6732 116.863 25.9107L116.073 23.1208C114.82 23.7668 112.979 24.2364 111.493 24.2364C110.003 24.2364 108.895 23.7959 108.424 23.2973C107.87 22.6842 107.608 21.6831 107.608 20.6568H117.125L117.123 19.126ZM112.946 17.927H107.606C107.664 15.8763 108.656 14.8751 110.408 14.8751C112.338 14.8751 112.946 16.1382 112.946 17.927ZM131.19 13.9051C130.171 12.8496 128.183 12.0251 125.963 12.0251C120.794 12.0251 118.345 14.3726 118.345 19.8031C118.345 25.026 120.302 27.523 125.818 27.523C128.094 27.523 130.051 26.9623 131.132 26.291L130.258 23.3536C129.175 23.8794 127.804 24.2596 126.197 24.2596C123.919 24.2596 122.46 23.0024 122.46 19.8574C122.46 16.4564 123.714 15.1953 125.992 15.1953C127.247 15.1953 128.325 15.721 129.026 16.3671L131.19 13.9051ZM143.818 12.3238H138.881V8.77337L134.708 9.46406V12.3238H132.168V15.6376H134.708V22.1526C134.708 26.0562 135.903 27.4648 139.289 27.4648C141.188 27.4648 142.998 27.0554 144.399 26.291L143.79 23.2411C142.884 23.7106 141.684 23.9744 140.838 23.9744C139.408 23.9744 138.881 23.503 138.881 21.6249V15.6667H143.818V12.3238ZM145.913 12.3238V27.1155H150.145V16.9317C150.875 15.9927 152.216 15.4048 153.591 15.4048C154.353 15.4048 155.196 15.6066 155.664 15.8763L156.629 12.4403C155.984 12.0871 154.905 11.9416 153.911 11.9416C152.483 11.9416 150.711 12.5858 149.804 13.7906V12.3238H145.913ZM163.915 11.9436C158.545 11.9436 156.266 14.4929 156.266 19.6615C156.266 24.5041 157.903 27.4667 163.303 27.4667C168.53 27.4667 170.983 24.9717 170.983 19.807C170.981 14.7587 169.344 11.9436 163.915 11.9436ZM166.688 19.5431C166.688 22.9462 166.046 24.3819 163.388 24.3819C161.172 24.3819 160.556 22.6532 160.556 19.6886C160.556 16.34 161.253 15.0245 163.826 15.0245C166.192 15.0245 166.688 16.7842 166.688 19.5431ZM172.5 12.3238V27.1155H176.735V16.2255C177.26 15.8452 178.312 15.463 179.188 15.463C181.261 15.463 181.699 16.2856 181.699 17.927V27.1136H185.93V16.9045C185.93 13.938 184.88 11.9727 181.348 11.9727C179.711 11.9727 177.985 12.3801 176.47 13.323V13.292V12.3238H172.5ZM188.001 9.12454H192.291V5.69241H188.001V9.12454ZM188.032 27.1155H192.264V12.3238H188.032V27.1155ZM206.541 13.8507C205.52 12.7953 203.532 11.9746 201.313 11.9746C196.148 11.9746 193.695 14.3183 193.695 19.7469C193.695 24.9717 195.655 27.4667 201.17 27.4667C203.444 27.4667 205.403 26.906 206.485 26.2308L205.607 23.2973C204.528 23.827 203.154 24.2073 201.548 24.2073C199.273 24.2073 197.81 22.9462 197.81 19.8051C197.81 16.4001 199.064 15.1409 201.344 15.1409C202.598 15.1409 203.679 15.6648 204.38 16.3128L206.541 13.8507ZM219.884 13.2648C218.159 12.4713 216.497 11.9727 214.104 11.9727C209.985 11.9727 207.8 13.7305 207.8 16.4602C207.8 19.2502 209.575 20.5093 211.857 21.039L213.519 21.4173C215.007 21.7433 215.943 22.2438 215.943 22.9772C215.943 23.8852 215.009 24.3547 213.665 24.3547C211.973 24.3547 209.985 23.7979 208.761 23.0936L207.678 26.1435C209.166 26.937 211.037 27.5269 213.634 27.5269C217.576 27.5269 220 25.9689 220 22.7075C220 20.5404 218.657 19.3084 216.877 18.7807C216.379 18.6313 215.474 18.3693 214.831 18.2238C213.283 17.9018 211.737 17.5758 211.737 16.404C211.737 15.5251 212.669 15.0536 214.188 15.0536C215.883 15.0536 217.516 15.4979 218.682 16.1401L219.884 13.2648Z" fill="#6E6F71"/>
<path d="M46.2359 27.166H55.234V23.0121H45.0739V5.83405H40.1714V27.166H46.2359Z" fill="#6E6F71"/>
<path d="M66.0195 19.0348H70.0129V22.7638C69.2756 23.049 67.8415 23.3303 66.4731 23.3303C62.0628 23.3303 60.5901 21.0778 60.5901 16.499C60.5901 12.1356 61.9894 9.56494 66.4017 9.56494C68.8568 9.56494 70.2561 10.3391 71.4122 11.8175L74.4599 9.0023C72.6012 6.32877 69.3489 5.51779 66.2974 5.51779C59.432 5.51779 55.8246 9.28362 55.8246 16.4641C55.8246 23.6136 59.0827 27.4861 66.2627 27.4861C69.5535 27.4861 72.7768 26.6421 74.5274 25.4101V15.0556H66.0176V19.0348H66.0195Z" fill="#6E6F71"/>
</g>
<defs>
<radialGradient id="paint0_radial_111_486" cx="0" cy="0" r="1" gradientUnits="userSpaceOnUse" gradientTransform="translate(15.7569 16.053) scale(17.1345 17.2236)">
<stop stop-color="#C22043"/>
<stop offset="0.5" stop-color="#C22043"/>
<stop offset="0.7435" stop-color="#C02042"/>
<stop offset="0.846" stop-color="#B91F3F"/>
<stop offset="0.9219" stop-color="#AE1E3A"/>
<stop offset="0.9844" stop-color="#A01C33"/>
<stop offset="1" stop-color="#9B1B31"/>
</radialGradient>
<linearGradient id="paint1_linear_111_486" x1="9.69205" y1="2.13146" x2="18.4321" y2="26.0205" gradientUnits="userSpaceOnUse">
<stop stop-color="#F18996"/>
<stop offset="0.2359" stop-color="#DD5F70"/>
<stop offset="0.4716" stop-color="#CE3D55"/>
<stop offset="0.6681" stop-color="#C52848"/>
<stop offset="0.8011" stop-color="#C22043"/>
<stop offset="1" stop-color="#C22043"/>
</linearGradient>
<linearGradient id="paint2_linear_111_486" x1="5.46243" y1="8.04289" x2="25.4337" y2="27.9108" gradientUnits="userSpaceOnUse">
<stop stop-color="#CE435D"/>
<stop offset="0.1158" stop-color="#BA354F"/>
<stop offset="0.2712" stop-color="#A82944"/>
<stop offset="0.447" stop-color="#9B203C"/>
<stop offset="0.6582" stop-color="#941B37"/>
<stop offset="1" stop-color="#921936"/>
</linearGradient>
<linearGradient id="paint3_linear_111_486" x1="16.9035" y1="15.8196" x2="17.2693" y2="15.8196" gradientUnits="userSpaceOnUse">
<stop stop-color="#B4BDC3"/>
<stop offset="0.0546" stop-color="#A9B3B9"/>
<stop offset="0.5061" stop-color="#646A71"/>
<stop offset="0.833" stop-color="#3F464E"/>
<stop offset="1" stop-color="#343B42"/>
</linearGradient>
<linearGradient id="paint4_linear_111_486" x1="20.1681" y1="23.081" x2="20.4904" y2="23.081" gradientUnits="userSpaceOnUse">
<stop stop-color="#B4BBC2"/>
<stop offset="0.1586" stop-color="#959CA2"/>
<stop offset="0.5603" stop-color="#565D62"/>
<stop offset="0.8514" stop-color="#363D42"/>
<stop offset="1" stop-color="#2B3337"/>
</linearGradient>
<linearGradient id="paint5_linear_111_486" x1="9.66832" y1="9.70469" x2="12.7086" y2="12.7293" gradientUnits="userSpaceOnUse">
<stop stop-color="#ACBCC3"/>
<stop offset="1" stop-color="#272B31"/>
</linearGradient>
<linearGradient id="paint6_linear_111_486" x1="5.30466" y1="7.70539" x2="25.2409" y2="27.5385" gradientUnits="userSpaceOnUse">
<stop stop-color="#B4BDC3"/>
<stop offset="1" stop-color="#3F464E"/>
</linearGradient>
<linearGradient id="paint7_linear_111_486" x1="29.0088" y1="16.4652" x2="3.79553" y2="16.4652" gradientUnits="userSpaceOnUse">
<stop stop-color="#B4BDC3"/>
<stop offset="1" stop-color="#49535B"/>
</linearGradient>
<linearGradient id="paint8_linear_111_486" x1="16.9205" y1="3.33842" x2="17.2372" y2="3.33842" gradientUnits="userSpaceOnUse">
<stop stop-color="#B4BBC2"/>
<stop offset="0.1586" stop-color="#959CA2"/>
<stop offset="0.5603" stop-color="#565D62"/>
<stop offset="0.8514" stop-color="#363D42"/>
<stop offset="1" stop-color="#2B3337"/>
</linearGradient>
<radialGradient id="paint9_radial_111_486" cx="0" cy="0" r="1" gradientUnits="userSpaceOnUse" gradientTransform="translate(10.8632 10.6463) scale(21.0093 21.1185)">
<stop stop-color="white"/>
<stop offset="0.35" stop-color="white"/>
<stop offset="0.4976" stop-color="#FCFCFD"/>
<stop offset="0.6499" stop-color="#F1F4F6"/>
<stop offset="0.8044" stop-color="#E0E6E9"/>
<stop offset="0.9596" stop-color="#C7D2D8"/>
<stop offset="1" stop-color="#C0CDD3"/>
</radialGradient>
<radialGradient id="paint10_radial_111_486" cx="0" cy="0" r="1" gradientUnits="userSpaceOnUse" gradientTransform="translate(10.3462 10.4997) scale(3.06702 3.08297)">
<stop stop-color="white"/>
<stop offset="0.35" stop-color="white"/>
<stop offset="0.5211" stop-color="#FCFDFD"/>
<stop offset="0.6984" stop-color="#F2F5F6"/>
<stop offset="0.8778" stop-color="#E0E7EB"/>
<stop offset="1" stop-color="#D0DBE0"/>
</radialGradient>
<clipPath id="clip0_111_486">
<rect width="220" height="33" fill="white"/>
</clipPath>
</defs>
</svg>
