<svg width="32" height="32" viewBox="0 0 32 32" fill="none" xmlns="http://www.w3.org/2000/svg">
<g id="prime:linkedin">
<path id="Vector" d="M24.9599 5.33346H7.15992C6.93049 5.32271 6.70119 5.35731 6.48515 5.4353C6.26911 5.51328 6.07057 5.6331 5.9009 5.78791C5.73122 5.94272 5.59375 6.12948 5.49635 6.33749C5.39894 6.54549 5.34352 6.77067 5.33325 7.00012V24.8401C5.34669 25.3203 5.54346 25.7772 5.88316 26.1169C6.22285 26.4566 6.6797 26.6533 7.15992 26.6668H24.9599C25.4268 26.646 25.8669 26.4431 26.1859 26.1016C26.505 25.7602 26.6775 25.3073 26.6666 24.8401V7.00012C26.6704 6.7768 26.6286 6.55504 26.5436 6.34846C26.4587 6.14188 26.3325 5.95482 26.1726 5.79877C26.0128 5.64271 25.8229 5.52094 25.6143 5.44093C25.4058 5.36092 25.1831 5.32434 24.9599 5.33346ZM11.9999 23.1201H8.89325V13.6135H11.9999V23.1201ZM10.5199 12.1735C10.3031 12.181 10.0871 12.1437 9.88546 12.0637C9.6838 11.9838 9.50084 11.8631 9.34809 11.709C9.19533 11.555 9.07607 11.3711 8.99779 11.1688C8.91952 10.9665 8.88393 10.7502 8.89325 10.5335C8.88367 10.3144 8.91998 10.0957 8.99985 9.89154C9.07973 9.68734 9.20141 9.50209 9.35708 9.34767C9.51275 9.19325 9.69899 9.07308 9.90383 8.99486C10.1087 8.91664 10.3276 8.8821 10.5466 8.89346C10.7634 8.8859 10.9794 8.92326 11.181 9.00318C11.3827 9.0831 11.5657 9.20386 11.7184 9.35787C11.8712 9.51188 11.9904 9.69582 12.0687 9.89812C12.147 10.1004 12.1826 10.3167 12.1733 10.5335C12.1828 10.7525 12.1465 10.9712 12.0667 11.1754C11.9868 11.3796 11.8651 11.5648 11.7094 11.7192C11.5538 11.8737 11.3675 11.9938 11.1627 12.0721C10.9578 12.1503 10.7389 12.1848 10.5199 12.1735ZM23.1199 23.1201H19.9999V17.9201C19.9999 16.6801 19.5599 15.8268 18.4533 15.8268C18.1095 15.8298 17.775 15.939 17.4957 16.1395C17.2164 16.34 17.006 16.622 16.8933 16.9468C16.8066 17.1903 16.7703 17.4488 16.7866 17.7068V23.1201H13.7199V13.6135H16.7866V14.9468C17.0592 14.4459 17.465 14.0301 17.9592 13.7454C18.4533 13.4607 19.0165 13.3181 19.5866 13.3335C21.5999 13.3335 23.1199 14.6668 23.1199 17.5068V23.1201Z" fill="#F9F4F0"/>
</g>
</svg>
