<svg width="94" height="36" viewBox="0 0 94 36" fill="none" xmlns="http://www.w3.org/2000/svg">
<g clip-path="url(#clip0_111_448)">
<path fill-rule="evenodd" clip-rule="evenodd" d="M44.18 0.0417891C32.3273 0.846536 23.8335 6.44988 24.1007 13.288C24.4839 23.0977 42.3971 29.1556 56.968 24.4032C69.3074 20.3785 72.126 10.6041 62.745 4.36903C58.1406 1.30903 50.7812 -0.406693 44.18 0.0417891ZM35.0933 4.41595C41.1057 5.06288 45.6083 8.37175 46.3192 12.6654C46.7941 15.5346 45.0796 18.681 42.7042 19.299C41.6286 19.5789 40.42 19.0595 40.42 18.3173C40.42 17.9603 40.604 17.8557 41.3013 17.8163C42.5536 17.7455 43.0929 17.2214 43.1002 16.0683C43.1065 15.0458 42.4375 14.4105 41.0467 14.1189C40.365 13.976 38.301 13.9826 38.1243 14.1282C38.0787 14.1658 38.07 14.7728 38.07 17.9038V21.6348L35.0639 21.6247L32.058 21.6147V12.9962V4.37743L32.195 4.35058C32.4284 4.30459 34.4924 4.35128 35.0933 4.41595ZM60.6594 4.34428L60.865 4.36879V13.0018V21.6348L57.8589 21.6247L54.853 21.6147L54.8333 17.8604L54.8138 14.1061L54.618 14.071C54.1644 13.9903 52.3004 14.0218 51.8567 14.118C50.3732 14.4392 49.6628 15.2157 49.8162 16.3482C49.9476 17.3195 50.486 17.7579 51.6217 17.8184C52.5451 17.8676 52.8217 18.314 52.2635 18.854C50.9715 20.1044 48.5021 19.0527 47.278 16.7309C45.2462 12.8771 47.4035 8.25362 52.3267 5.91012C54.1865 5.02482 56.4122 4.47945 58.7108 4.34591C59.1347 4.3214 60.4575 4.32023 60.6594 4.34428ZM40.0186 8.80015C39.7519 8.89681 40.0041 9.1744 40.4926 9.32171C41.1008 9.50521 41.3821 9.19658 40.8508 8.92856C40.5502 8.77704 40.2219 8.72638 40.0186 8.80015ZM52.503 8.78124C51.8086 8.9358 51.5014 9.37751 52.0882 9.37751C52.4762 9.37751 53.0729 9.06257 53.0073 8.89261C52.9631 8.77868 52.7382 8.72895 52.503 8.78124ZM39.7712 12.3467C39.7606 12.3742 39.7568 12.6497 39.7629 12.9591L39.7738 13.5215L42.1238 13.5301C43.6555 13.5357 44.4512 13.5257 44.4089 13.5012C44.3734 13.4804 43.968 13.3665 43.5081 13.2481C42.0053 12.8612 40.5241 12.4842 40.2045 12.4069C40.0322 12.3654 39.8685 12.3236 39.8407 12.3142C39.813 12.3047 39.7817 12.3194 39.7712 12.3467ZM52.6792 12.4114C50.4287 12.9808 48.4391 13.4991 48.4166 13.5215C48.4058 13.5322 49.4661 13.5409 50.7732 13.5409H53.1493V12.9402C53.1493 12.2332 53.1923 12.2816 52.6792 12.4114ZM2.1016 27.6166C2.09126 27.6332 2.01888 27.9353 1.94063 28.2882C1.29438 31.2049 0.676327 33.6481 0.213377 35.1168C0.112327 35.4378 0.0209121 35.731 0.0101021 35.7684C-0.00775789 35.8321 0.0571021 35.8366 0.989347 35.8366C2.11688 35.8366 2.0445 35.8581 2.10795 35.5058C2.2802 34.5504 3.30128 30.3873 3.3511 30.437C3.39951 30.4849 3.62487 33.7426 3.6761 35.1362L3.70125 35.8172L4.89834 35.8275L6.09543 35.8377L6.22773 35.5356C6.42372 35.0893 8.68959 30.5837 8.7185 30.5837C8.77443 30.5837 8.02666 34.4237 7.82432 35.1752C7.75829 35.4212 7.69578 35.6708 7.68591 35.7297L7.66781 35.8366H8.67197H9.67612L9.70879 35.749C9.72665 35.7009 9.77153 35.425 9.80866 35.1362C9.87329 34.6317 11.0488 28.662 11.2043 28.048C11.3355 27.5314 11.5018 27.5874 9.84062 27.5881C9.04891 27.5886 8.3808 27.6016 8.35589 27.6175C8.33075 27.6332 8.20408 27.8767 8.07436 28.1582C7.94441 28.4398 7.61917 29.0963 7.3515 29.6171C7.08384 30.138 6.56895 31.1421 6.20752 31.8483C5.84609 32.5546 5.54412 33.1396 5.53636 33.1485C5.48842 33.204 5.46375 33.0189 5.41816 32.266C5.38996 31.8009 5.32251 30.7023 5.26846 29.8249C5.21418 28.9475 5.16553 28.0896 5.16013 27.9182L5.15049 27.607L3.63521 27.5967C2.8019 27.5911 2.11171 27.6 2.1016 27.6166ZM24.0934 27.6556C24.0736 27.6932 24.0454 27.8024 24.0309 27.8988C23.766 29.6479 23.1174 32.8018 22.6197 34.7612C22.4792 35.3148 22.3642 35.7831 22.3642 35.802C22.3642 35.8445 24.3888 35.8487 24.4151 35.8062C24.4254 35.7896 24.4978 35.4089 24.5761 34.9599C25.1243 31.8154 25.6625 30.8949 26.9524 30.8949C27.9046 30.8949 27.9088 31.3982 26.9888 35.1322C26.9023 35.4831 26.841 35.7852 26.8523 35.8034C26.8798 35.8473 28.8552 35.8464 28.8824 35.8025C28.8942 35.7836 28.9666 35.4054 29.0434 34.9618C29.12 34.5184 29.2953 33.5928 29.4326 32.9047C29.8694 30.7144 29.8659 30.3163 29.4055 29.82C28.78 29.146 26.959 29.0519 25.897 29.6391C25.7612 29.714 25.6401 29.7656 25.6279 29.7535C25.6007 29.7264 25.7612 29.0029 25.9659 28.2313C26.0505 27.9119 26.1108 27.6364 26.1 27.6191C26.0554 27.5472 24.1321 27.5823 24.0934 27.6556ZM53.5114 27.6362C53.4898 27.663 53.4519 27.8073 53.427 27.9572C53.3723 28.2882 53.1163 29.6164 52.9286 30.5447C52.605 32.1458 52.0422 34.5612 51.801 35.3837C51.7454 35.5735 51.7 35.7528 51.7 35.7826C51.7 35.8272 51.8866 35.8366 52.7928 35.8366H53.8853L53.9278 35.5933C53.9511 35.4595 53.9894 35.2102 54.0131 35.0388C54.1043 34.3772 54.5003 32.5492 54.5722 32.4581C54.6048 32.4168 54.923 32.4084 56.2115 32.4159C57.0909 32.421 57.8185 32.417 57.8283 32.4072C57.8471 32.3886 58.1517 30.978 58.1884 30.7394L58.2093 30.603L56.58 30.6166C55.684 30.6238 54.9508 30.6205 54.9508 30.6093C54.9508 30.5568 55.0774 29.9867 55.1536 29.6953L55.2386 29.371L57.0524 29.3813C58.0502 29.3869 58.88 29.3783 58.8964 29.3619C58.9129 29.3458 58.9542 29.1983 58.9885 29.0339C59.0228 28.8698 59.1004 28.5054 59.1608 28.224C59.2214 27.9427 59.26 27.6845 59.2466 27.6502C59.2144 27.5664 53.5784 27.5528 53.5114 27.6362ZM59.8489 27.6243C59.8153 27.6453 59.749 27.8638 59.6867 28.1587C59.6284 28.433 59.5511 28.7944 59.5147 28.9613C59.4783 29.1285 59.4581 29.2905 59.47 29.3213C59.4957 29.3879 61.3905 29.4065 61.4316 29.3407C61.444 29.3206 61.4976 29.0886 61.5505 28.8252C61.6036 28.5619 61.6814 28.1897 61.7237 27.9985C61.766 27.8071 61.7916 27.6364 61.7808 27.6191C61.7538 27.5755 59.9187 27.5804 59.8489 27.6243ZM21.2283 28.2131C20.8943 28.2745 20.4979 28.3473 20.347 28.3751L20.073 28.4253L20.0201 28.6583C19.991 28.7862 19.9381 29.0047 19.9024 29.1439L19.8373 29.397L19.4072 29.4079C18.8815 29.4217 18.9506 29.3349 18.7662 30.2136C18.5829 31.0863 18.5596 31.0116 19.0155 31.0116C19.2176 31.0116 19.391 31.0249 19.4009 31.0408C19.4223 31.0758 18.9755 33.1396 18.7807 33.9054C18.396 35.417 18.7828 35.9423 20.3103 35.9832C20.911 35.9991 21.706 35.9241 21.7831 35.844C21.804 35.8221 22.0547 35.1469 22.3666 34.2714C22.4366 34.0753 22.4456 34.0767 21.9145 34.2054C21.0851 34.4064 20.8107 34.3501 20.8238 33.9819C20.8295 33.8202 21.0287 32.8597 21.3554 31.4202L21.4437 31.0312L22.1767 31.0205L22.9099 31.01L22.9492 30.865C23.0215 30.5972 23.2258 29.5924 23.2258 29.5039C23.2258 29.4163 23.225 29.4163 22.5405 29.4163H21.855V29.3283C21.855 29.2798 21.9076 29.004 21.9718 28.7155C22.0362 28.4267 22.0891 28.1687 22.0893 28.1421C22.0902 28.0716 21.9201 28.0856 21.2283 28.2131ZM47.0392 28.2458C46.0377 28.4269 46.0208 28.4311 46.0208 28.507C46.0208 28.5413 45.9853 28.7204 45.9416 28.9053C45.8981 29.09 45.8537 29.2807 45.8431 29.3288C45.8243 29.4131 45.8074 29.4163 45.3982 29.4163C44.8798 29.4163 44.9334 29.3512 44.755 30.1984C44.5642 31.1043 44.5356 31.0116 45.007 31.0116H45.4029L45.3776 31.1575C45.3129 31.5287 44.9712 33.0567 44.7797 33.8328C44.4343 35.2307 44.6679 35.7574 45.7214 35.9559C46.2064 36.0474 47.6467 35.9554 47.7687 35.8251C47.8154 35.7752 48.4189 34.1204 48.398 34.0996C48.3912 34.0928 48.1776 34.1393 47.9235 34.2033C47.0968 34.4106 46.8042 34.355 46.8042 33.9911C46.8042 33.8612 47.1817 32.0638 47.4113 31.1001C47.4315 31.0146 47.4432 31.0132 48.163 31.0027L48.8941 30.9922L48.9258 30.8755C49.0182 30.5374 49.2292 29.4815 49.2104 29.4514C49.1984 29.432 48.8814 29.4163 48.5056 29.4163C48.1299 29.4163 47.8225 29.4033 47.8225 29.3872C47.8225 29.371 47.8751 29.104 47.9393 28.7937C48.0037 28.4834 48.0566 28.1988 48.0568 28.1615C48.0577 28.0683 47.9879 28.0742 47.0392 28.2458ZM71.9688 29.2597C70.9949 29.3379 70.1646 29.5354 70.1137 29.7012C69.8382 30.5972 69.595 31.4484 69.6103 31.4636C69.6209 31.4741 69.8138 31.4045 70.0394 31.3088C71.5476 30.6686 72.8225 30.5904 72.7168 31.1444C72.6665 31.408 72.3659 31.5411 70.9505 31.9256C69.2933 32.376 68.7521 32.7584 68.4649 33.6815C67.9848 35.2251 69.0399 36.244 70.8001 35.9363C71.4069 35.83 71.4057 35.8307 71.5368 35.5349C71.808 34.9223 71.9659 34.6149 71.9786 34.6744C71.9951 34.7512 71.8562 35.3045 71.7525 35.5756C71.6487 35.8473 71.6073 35.8366 72.7529 35.8366C73.9449 35.8366 73.8292 35.8814 73.9054 35.389C73.9319 35.2179 73.9968 34.8677 74.0499 34.6109C74.1028 34.3541 74.2529 33.6273 74.3834 32.996C74.5138 32.3647 74.6557 31.6732 74.699 31.4591C75.0517 29.7147 74.2591 29.0762 71.9688 29.2597ZM33.2274 29.3409C31.3206 29.739 30.0802 31.3725 30.08 33.4861C30.0798 35.1261 31.0458 35.993 32.8725 35.9918C35.2199 35.9904 36.8073 34.419 36.9603 31.9454C37.0816 29.9872 35.481 28.8705 33.2274 29.3409ZM40.42 29.3351C38.4773 29.7616 37.2811 31.3219 37.2701 33.4436C37.2611 35.1971 38.2408 36.0446 40.2045 35.9813C42.1656 35.9185 43.4799 34.8584 43.9882 32.9295C44.4613 31.1335 43.8907 29.8251 42.4424 29.386C41.9973 29.2508 40.9262 29.224 40.42 29.3351ZM65.2712 29.3531C64.8741 29.4577 64.7352 29.5135 64.4353 29.6888L64.2262 29.8109L64.2396 29.6234L64.253 29.4357L63.328 29.4254C62.2315 29.4131 62.3584 29.3295 62.2195 30.1557C62.0057 31.4293 61.6259 33.2008 61.2349 34.7503C61.096 35.2998 60.9825 35.7693 60.9825 35.7932C60.9825 35.8473 63.003 35.855 63.0366 35.8011C63.0489 35.7815 63.0949 35.5408 63.1389 35.266C63.6636 31.9938 64.2255 30.9483 65.4837 30.9033C66.3748 30.8713 66.4646 31.1722 66.0959 32.9573C65.9332 33.745 65.8489 34.1199 65.5695 35.291C65.506 35.5578 65.4623 35.7899 65.4726 35.8065C65.4976 35.8466 67.4741 35.8454 67.4991 35.8053C67.5099 35.788 67.5557 35.5471 67.6013 35.2702C67.6934 34.709 67.7726 34.2922 68.1122 32.5781C68.4884 30.6794 68.4581 30.1935 67.9343 29.7355C67.4342 29.2982 66.1694 29.1166 65.2712 29.3531ZM78.8975 29.3561C78.5469 29.446 78.3349 29.5354 78.0536 29.7117C77.8806 29.8202 77.868 29.8107 77.8931 29.5898L77.9126 29.4163H76.97C76.4025 29.4163 76.0178 29.4313 76.0037 29.4542C75.9908 29.4749 75.9271 29.8032 75.8622 30.1837C75.6308 31.5437 75.1988 33.5463 74.8322 34.9611C74.7157 35.4105 74.6285 35.7913 74.6383 35.8074C74.6482 35.8235 75.113 35.8366 75.6716 35.8366H76.6868L76.7073 35.749C76.7183 35.7009 76.763 35.4338 76.8065 35.1556C77.2887 32.0666 77.8879 30.9544 79.0984 30.9019C80.1792 30.8547 80.1933 31.2423 79.2516 35.1287C79.1774 35.435 79.1167 35.7194 79.1167 35.7609C79.1167 35.8338 79.1529 35.8366 80.1141 35.8366C81.2649 35.8366 81.1575 35.8795 81.2313 35.389C81.2938 34.9718 81.6644 33.0257 81.8423 32.1789C82.2406 30.2834 81.9487 29.5917 80.6348 29.3171C80.1942 29.2251 79.3322 29.2443 78.8975 29.3561ZM85.5792 29.3169C83.8832 29.6258 82.8001 30.749 82.4255 32.5872C81.8796 35.2665 83.6955 36.6177 86.6741 35.7488L86.8487 35.6979L87.1335 34.8236C87.2903 34.3429 87.4188 33.9343 87.4193 33.9159C87.4202 33.8685 87.2329 33.9012 86.7035 34.041C84.8719 34.5245 84.0433 33.9754 84.4219 32.5291C84.7645 31.2208 85.7064 30.7595 87.2433 31.147C87.5586 31.2266 87.8273 31.2817 87.8397 31.2693C87.8714 31.2376 88.125 29.7437 88.125 29.5877C88.125 29.382 86.2922 29.1871 85.5792 29.3169ZM91.0233 29.3185C89.3298 29.6542 88.1553 30.9656 87.8686 32.8405C87.5072 35.2048 88.9416 36.3623 91.6364 35.8802C92.5228 35.7217 92.4737 35.746 92.5982 35.403C92.6553 35.2457 92.8165 34.8191 92.9559 34.4552C93.2478 33.695 93.2572 33.7205 92.7569 33.9224C91.7362 34.3345 90.5918 34.3499 90.1681 33.9572C89.9604 33.7646 89.8332 33.1637 89.9587 32.9673C89.9824 32.9302 90.4249 32.9167 91.8674 32.909L93.7455 32.8989L93.8567 32.4707C94.4395 30.2253 93.2311 28.8808 91.0233 29.3185ZM11.8865 29.4649C11.8767 29.4918 11.8254 29.7763 11.7726 30.0974C11.6689 30.7268 11.5592 31.2999 11.3138 32.4904C10.9357 34.3254 10.9223 34.7232 11.2217 35.2307C11.7211 36.0773 13.5973 36.2778 14.8381 35.6171L15.165 35.4432L15.1514 35.6302L15.138 35.8172H16.0973H17.0565L17.1254 35.4086C17.3959 33.8038 17.7683 32.0197 18.1347 30.5743C18.2851 29.9806 18.4083 29.4773 18.4083 29.4556C18.4083 29.4301 18.0499 29.4163 17.3891 29.4163H16.3701L16.3351 29.5039C16.316 29.552 16.2714 29.8016 16.2359 30.0584C15.8256 33.0332 15.1608 34.2861 13.9592 34.3492C12.8714 34.4064 12.8519 33.8647 13.8037 30.0212C13.8775 29.7226 13.9294 29.4642 13.9188 29.4472C13.8845 29.3921 11.9067 29.4093 11.8865 29.4649ZM59.4061 29.7544C59.3683 29.7642 59.3375 29.7822 59.3375 29.7943C59.3375 30.1331 58.5498 33.8881 58.1827 35.2996C58.112 35.5714 58.0638 35.8034 58.0758 35.8151C58.1089 35.8483 60.16 35.8405 60.1598 35.8074C60.1586 35.6351 60.849 32.089 61.1197 30.8755C61.354 29.8265 61.3576 29.8046 61.2918 29.7633C61.237 29.7287 59.5351 29.721 59.4061 29.7544ZM91.7675 30.8853C91.9238 30.9628 92.0415 31.1636 92.0415 31.3522L92.0417 31.4785H91.2192C90.2903 31.4785 90.2905 31.4788 90.537 31.2077C90.8477 30.8661 91.4244 30.7151 91.7675 30.8853ZM34.3032 30.9939C34.8023 31.1412 34.9816 31.6849 34.8221 32.5681C34.6153 33.7128 34.0367 34.3191 33.1519 34.3191C32.3604 34.3191 32.0333 33.8559 32.1567 32.9099C32.3459 31.4603 33.2248 30.6756 34.3032 30.9939ZM41.465 30.9922C41.9252 31.1279 42.0471 31.3464 42.0408 32.0234C42.0274 33.4471 41.391 34.2992 40.3417 34.2988C39.5839 34.2983 39.3 34.0041 39.3108 33.2295C39.3327 31.6744 40.3159 30.653 41.465 30.9922ZM72.3664 33.1419C72.356 33.1795 72.309 33.3763 72.2616 33.5797C72.2143 33.783 72.1631 33.9931 72.1478 34.0466C72.1231 34.1339 72.0696 34.157 71.6332 34.2703C70.8125 34.4832 70.4001 34.4167 70.4098 34.073C70.4199 33.7181 70.5613 33.625 71.577 33.3044C72.3786 33.0514 72.3922 33.0486 72.3664 33.1419Z" fill="#D21D25"/>
</g>
<defs>
<clipPath id="clip0_111_448">
<rect width="94" height="36" fill="white"/>
</clipPath>
</defs>
</svg>
