<svg width="35" height="35" viewBox="0 0 35 35" fill="none" xmlns="http://www.w3.org/2000/svg">
<g id="ei:arrow-right">
<path id="Vector" d="M17.5001 29.4C10.9201 29.4 5.6001 24.08 5.6001 17.5C5.6001 10.92 10.9201 5.60001 17.5001 5.60001C24.0801 5.60001 29.4001 10.92 29.4001 17.5C29.4001 24.08 24.0801 29.4 17.5001 29.4ZM17.5001 7.00001C11.6901 7.00001 7.0001 11.69 7.0001 17.5C7.0001 23.31 11.6901 28 17.5001 28C23.3101 28 28.0001 23.31 28.0001 17.5C28.0001 11.69 23.3101 7.00001 17.5001 7.00001Z" fill="black"/>
<path id="Vector_2" d="M17.2901 24.29L16.3101 23.31L22.1201 17.5L16.3101 11.69L17.2901 10.71L24.0801 17.5L17.2901 24.29Z" fill="black"/>
<path id="Vector_3" d="M11.2002 16.8H23.1002V18.2H11.2002V16.8Z" fill="black"/>
</g>
</svg>
