<svg width="248" height="18" viewBox="0 0 248 18" fill="none" xmlns="http://www.w3.org/2000/svg">
<g clip-path="url(#clip0_111_464)">
<path d="M9.661 15.9323C9.661 17.5809 12.0151 16.7935 12.0151 17.4086C12.0151 17.7039 11.7774 17.7539 11.3971 17.7539C10.2798 17.7539 9.66101 17.7039 8.23474 17.7039C6.80848 17.7039 6.19043 17.7539 5.07243 17.7539C4.69209 17.7539 4.45438 17.7039 4.45438 17.4086C4.45438 16.7935 6.80771 17.5809 6.80771 15.9323L6.78471 1.60894C4.38384 1.60894 2.31499 3.79891 1.38715 5.79282C1.12567 6.35877 1.00682 6.67865 0.864192 6.67865C0.697795 6.67865 0.650253 6.58023 0.650253 6.4818C0.650253 6.18653 0.792879 5.59597 0.887964 5.12845L1.64864 1.0922C1.67241 0.943769 1.69618 0.62468 1.91012 0.62468C2.05274 0.62468 2.10029 0.723105 2.21914 0.821531C2.36253 0.919957 2.57647 1.01838 3.07566 1.01838H13.3701C13.8692 1.01838 14.0839 0.919957 14.2258 0.821531C14.3447 0.723105 14.3922 0.62468 14.5348 0.62468C14.7488 0.62468 14.7725 0.944563 14.7963 1.0922L15.557 5.12845C15.6521 5.59597 15.7955 6.18653 15.7955 6.4818C15.7955 6.58023 15.7472 6.67865 15.5815 6.67865C15.4389 6.67865 15.32 6.35877 15.0586 5.79282C14.1315 3.79891 12.0626 1.60894 9.661 1.60894V15.9323Z" fill="black"/>
<path d="M21.9499 9.18931V15.9331C21.9499 17.5817 23.9229 16.7943 23.9229 17.4094C23.9229 17.7047 23.7802 17.7547 23.3999 17.7547C22.5679 17.7547 21.9499 17.7047 20.5236 17.7047C19.0973 17.7047 18.4785 17.7547 17.6465 17.7547C17.2662 17.7547 17.1236 17.7047 17.1236 17.4094C17.1236 16.7943 19.0973 17.5817 19.0973 15.9331V2.79005C19.0973 1.14063 17.1236 1.92883 17.1236 1.31367C17.1236 1.01839 17.2662 0.969177 17.6465 0.969177C18.4785 0.969177 19.0973 1.01839 20.5236 1.01839C21.9499 1.01839 22.5679 0.969177 23.3999 0.969177C23.7802 0.969177 23.9229 1.01839 23.9229 1.31367C23.9229 1.92883 21.9499 1.14142 21.9499 2.79005V8.59796H28.8204V2.79005C28.8204 1.14063 26.8467 1.92883 26.8467 1.31367C26.8467 1.01839 26.9901 0.969177 27.3704 0.969177C28.2024 0.969177 28.8204 1.01839 30.2467 1.01839C31.673 1.01839 32.2918 0.969177 33.123 0.969177C33.5033 0.969177 33.6467 1.01839 33.6467 1.31367C33.6467 1.92883 31.673 1.14142 31.673 2.79005V15.9323C31.673 17.5809 33.6467 16.7935 33.6467 17.4087C33.6467 17.7039 33.5033 17.7539 33.123 17.7539C32.291 17.7539 31.673 17.7039 30.2467 17.7039C28.8204 17.7039 28.2016 17.7539 27.3704 17.7539C26.9901 17.7539 26.8467 17.7039 26.8467 17.4087C26.8467 16.7935 28.8204 17.5809 28.8204 15.9323V9.18852L21.9499 9.18931Z" fill="black"/>
<path d="M37.2101 2.79005C37.2101 1.14063 35.2363 1.92883 35.2363 1.31367C35.2363 1.01839 35.3797 0.969177 35.76 0.969177C36.592 0.969177 37.2101 1.01839 38.6363 1.01839C43.8905 1.01839 45.6503 0.969177 47.3618 0.969177L48.5028 5.57137C48.5742 5.89126 48.6455 6.08811 48.6455 6.21193C48.6455 6.38418 48.5979 6.458 48.4553 6.458C48.1701 6.458 48.2414 5.84284 47.0766 4.12039C45.6258 1.97963 43.6052 1.56053 40.7757 1.56053H40.0626V8.7964H40.5856C42.6306 8.7964 44.1758 7.95978 44.1758 5.47374C44.1758 5.10464 44.2946 5.00622 44.461 5.00622C44.6512 5.00622 44.7463 5.10464 44.7463 5.47374V12.8327C44.7463 13.2017 44.6512 13.2756 44.461 13.2756C44.2946 13.2756 44.1758 13.2017 44.1758 12.8327C44.1758 10.2482 42.6306 9.38696 40.5856 9.38696H40.0626V15.7862C40.0626 16.7213 40.6331 17.1642 42.0594 17.1642C46.4578 17.1642 48.3364 14.1614 49.025 11.7246C49.1439 11.3547 49.2152 11.2324 49.3816 11.2324C49.548 11.2324 49.5955 11.3547 49.5955 11.4785C49.5955 11.6269 49.5955 11.8484 49.5242 12.1921L48.5259 17.7547C46.5521 17.7547 44.5316 17.7047 38.6356 17.7047C37.2093 17.7047 36.5905 17.7547 35.7593 17.7547C35.3789 17.7547 35.2355 17.7047 35.2355 17.4094C35.2355 16.7943 37.2093 17.5817 37.2093 15.9331L37.2101 2.79005Z" fill="black"/>
<path d="M66.6631 15.9323C66.6631 17.5809 69.0172 16.7935 69.0172 17.4086C69.0172 17.7039 68.7795 17.7539 68.3992 17.7539C67.282 17.7539 66.6631 17.7039 65.2369 17.7039C63.8106 17.7039 63.1926 17.7539 62.0746 17.7539C61.6942 17.7539 61.4565 17.7039 61.4565 17.4086C61.4565 16.7935 63.8098 17.5809 63.8098 15.9323L63.7868 1.60894C61.386 1.60894 59.3171 3.79891 58.3893 5.79282C58.1278 6.35877 58.009 6.67865 57.8663 6.67865C57.6999 6.67865 57.6524 6.58023 57.6524 6.4818C57.6524 6.18653 57.795 5.59597 57.8901 5.12845L58.6508 1.0922C58.6745 0.943769 58.6983 0.62468 58.9123 0.62468C59.0549 0.62468 59.1024 0.723105 59.2213 0.821531C59.3639 0.919957 59.5778 1.01838 60.077 1.01838H70.3714C70.8706 1.01838 71.0853 0.919957 71.2272 0.821531C71.346 0.723105 71.3936 0.62468 71.5362 0.62468C71.7501 0.62468 71.7739 0.944563 71.7977 1.0922L72.5584 5.12845C72.6534 5.59597 72.7968 6.18653 72.7968 6.4818C72.7968 6.58023 72.7485 6.67865 72.5829 6.67865C72.4403 6.67865 72.3214 6.35877 72.0599 5.79282C71.1329 3.79891 69.064 1.60894 66.6624 1.60894L66.6631 15.9323Z" fill="black"/>
<path d="M76.3364 2.79005C76.3364 1.14063 74.3634 1.92883 74.3634 1.31367C74.3634 1.01839 74.506 0.969177 74.8864 0.969177C75.7184 0.969177 76.3364 1.01839 77.7627 1.01839C79.1889 1.01839 79.8078 0.969177 80.6397 0.969177C81.0201 0.969177 81.1627 1.01839 81.1627 1.31367C81.1627 1.92883 79.1889 1.14142 79.1889 2.79005V15.9323C79.1889 17.5809 81.1627 16.7935 81.1627 17.4087C81.1627 17.7039 81.0201 17.7539 80.6397 17.7539C79.8078 17.7539 79.1889 17.7039 77.7627 17.7039C76.3364 17.7039 75.7184 17.7539 74.8864 17.7539C74.506 17.7539 74.3634 17.7039 74.3634 17.4087C74.3634 16.7935 76.3364 17.5809 76.3364 15.9323V2.79005Z" fill="black"/>
<path d="M92.5736 13.5947L97.6851 1.01839H98.7793C100.206 1.01839 100.824 0.969177 101.656 0.969177C102.036 0.969177 102.179 1.01839 102.179 1.31367C102.179 1.92883 100.206 1.14142 100.206 2.79005V15.9323C100.206 17.5809 102.179 16.7935 102.179 17.4087C102.179 17.7039 102.036 17.7539 101.656 17.7539C100.824 17.7539 100.206 17.7039 98.7793 17.7039C97.3531 17.7039 96.7343 17.7539 95.9023 17.7539C95.5219 17.7539 95.3793 17.7039 95.3793 17.4087C95.3793 16.7935 97.3531 17.5809 97.3531 15.9323V3.13454H97.3048L91.7653 17.1872C91.6703 17.4087 91.5752 17.7039 91.4088 17.7039C91.2899 17.7039 91.1948 17.4571 91.0998 17.1872L85.6792 3.33139H85.6317V13.6431C85.6317 15.7354 86.321 16.7443 87.2243 17.0396C87.8431 17.2364 88.1284 17.138 88.1284 17.4825C88.1284 17.7039 87.985 17.7539 87.6046 17.7539C86.9391 17.7539 86.2972 17.7039 85.3464 17.7039C83.8726 17.7039 83.2538 17.7539 82.8259 17.7539C82.4931 17.7539 82.2792 17.7293 82.2792 17.5071C82.2792 17.1134 82.5407 17.2364 83.1587 17.0396C84.8464 16.5474 85.0604 14.6273 85.0604 11.65V3.33139C85.0604 1.14063 82.612 1.92803 82.612 1.31367C82.612 1.01839 82.7546 0.969177 83.1349 0.969177C83.9669 0.969177 84.5857 1.01839 86.012 1.01839H87.5333L92.5736 13.5947Z" fill="black"/>
<path d="M105.646 2.79005C105.646 1.14063 103.672 1.92883 103.672 1.31367C103.672 1.01839 103.816 0.969177 104.196 0.969177C105.028 0.969177 105.646 1.01839 107.072 1.01839C112.327 1.01839 114.086 0.969177 115.798 0.969177L116.939 5.57137C117.01 5.89126 117.081 6.08811 117.081 6.21193C117.081 6.38418 117.034 6.458 116.891 6.458C116.606 6.458 116.677 5.84284 115.513 4.12039C114.062 1.97963 112.041 1.56053 109.212 1.56053H108.499V8.7964H109.022C111.067 8.7964 112.612 7.95978 112.612 5.47374C112.612 5.10464 112.731 5.00622 112.897 5.00622C113.087 5.00622 113.182 5.10464 113.182 5.47374V12.8327C113.182 13.2017 113.087 13.2756 112.897 13.2756C112.731 13.2756 112.612 13.2017 112.612 12.8327C112.612 10.2482 111.067 9.38696 109.022 9.38696H108.499V15.7862C108.499 16.7213 109.069 17.1642 110.495 17.1642C114.894 17.1642 116.772 14.1614 117.461 11.7246C117.58 11.3547 117.651 11.2324 117.818 11.2324C117.984 11.2324 118.032 11.3547 118.032 11.4785C118.032 11.6269 118.032 11.8484 117.96 12.1921L116.962 17.7547C114.988 17.7547 112.968 17.7047 107.072 17.7047C105.645 17.7047 105.027 17.7547 104.195 17.7547C103.815 17.7547 103.672 17.7047 103.672 17.4094C103.672 16.7943 105.645 17.5817 105.645 15.9331V2.79005H105.646Z" fill="black"/>
<path d="M120.123 10.9364C120.123 10.7149 120.241 10.6411 120.36 10.6411C120.574 10.6411 120.622 10.8379 120.693 11.3793C121.097 14.4067 122.357 17.5079 125.496 17.5079C127.874 17.5079 128.943 16.0315 128.943 14.3574C128.943 9.38616 120.123 11.4039 120.123 5.34991C120.123 2.79005 122.405 0.62468 125.115 0.62468C127.232 0.62468 128.04 1.60894 128.967 1.60894C129.656 1.60894 129.347 0.821531 129.799 0.821531C129.966 0.821531 130.013 0.919957 130.037 1.19063C130.346 4.63632 130.441 6.33417 130.441 6.65405C130.441 6.90091 130.323 6.99933 130.179 6.99933C129.989 6.99933 129.942 6.67945 129.87 6.40878C129.062 3.60285 127.778 1.21603 125.092 1.21603C123.286 1.21603 122.215 2.32332 122.215 3.87432C122.215 8.40269 131.036 6.87709 131.036 12.8573C131.036 15.4663 129.229 18.0992 125.354 18.0992C123.618 18.0992 122.025 17.1642 121.407 17.1642C120.432 17.1642 120.789 18.0008 120.337 18.0008C120.242 18.0008 120.123 17.9516 120.123 17.7055V10.9364H120.123Z" fill="black"/>
<path d="M156.732 9.36155C156.732 14.8742 152.215 18.0984 148.197 18.0984C144.179 18.0984 139.662 14.8742 139.662 9.36155C139.662 3.84892 144.179 0.62468 148.197 0.62468C152.215 0.62468 156.732 3.84892 156.732 9.36155ZM148.197 1.21523C145.082 1.21523 142.8 3.79891 142.8 9.36155C142.8 14.9234 145.083 17.5079 148.197 17.5079C151.311 17.5079 153.594 14.9234 153.594 9.36155C153.594 3.79891 151.312 1.21523 148.197 1.21523Z" fill="black"/>
<path d="M160.461 2.79005C160.461 1.14063 158.488 1.92883 158.488 1.31367C158.488 1.01839 158.631 0.969177 159.011 0.969177C159.843 0.969177 160.461 1.01839 161.888 1.01839C167.142 1.01839 168.902 0.969177 170.424 0.969177L171.565 5.57137C171.636 5.89126 171.707 6.08811 171.707 6.21193C171.707 6.38418 171.66 6.458 171.517 6.458C171.232 6.458 171.303 5.84284 170.138 4.12039C168.688 1.97963 166.667 1.56053 163.838 1.56053H163.314V8.7964H163.838C165.883 8.7964 167.428 7.95978 167.428 5.47374C167.428 5.10464 167.547 5.00622 167.713 5.00622C167.903 5.00622 167.998 5.10464 167.998 5.47374V12.8327C167.998 13.2017 167.903 13.2756 167.713 13.2756C167.547 13.2756 167.428 13.2017 167.428 12.8327C167.428 10.2482 165.883 9.38696 163.838 9.38696H163.314V15.9339C163.314 17.5825 165.288 16.7951 165.288 17.4102C165.288 17.7055 165.144 17.7555 164.764 17.7555C163.932 17.7555 163.313 17.7055 161.888 17.7055C160.461 17.7055 159.842 17.7555 159.01 17.7555C158.63 17.7555 158.487 17.7055 158.487 17.4102C158.487 16.7951 160.46 17.5825 160.46 15.9339L160.461 2.79005Z" fill="black"/>
<path d="M181.974 2.79005C181.974 1.14063 180.001 1.92883 180.001 1.31367C180.001 1.01839 180.144 0.969177 180.524 0.969177C181.356 0.969177 181.975 1.01839 183.401 1.01839C184.827 1.01839 185.445 0.969177 186.278 0.969177C186.658 0.969177 186.801 1.01839 186.801 1.31367C186.801 1.92883 184.828 1.14142 184.828 2.79005V15.9323C184.828 17.5809 186.801 16.7935 186.801 17.4087C186.801 17.7039 186.658 17.7539 186.278 17.7539C185.445 17.7539 184.827 17.7039 183.401 17.7039C181.975 17.7039 181.356 17.7539 180.524 17.7539C180.144 17.7539 180.001 17.7039 180.001 17.4087C180.001 16.7935 181.974 17.5809 181.974 15.9323V2.79005Z" fill="black"/>
<path d="M201.278 5.07845C201.278 2.9869 200.398 1.97804 199.495 1.68276C198.876 1.48591 198.592 1.58434 198.592 1.23905C198.592 1.0176 198.734 0.968384 199.114 0.968384C199.97 0.968384 200.612 1.0176 201.611 1.0176C202.61 1.0176 203.251 0.968384 204.108 0.968384C204.488 0.968384 204.631 1.0176 204.631 1.23905C204.631 1.58434 204.346 1.48591 203.728 1.68276C202.824 1.97804 201.944 2.9869 201.944 5.07845V17.7539C201.944 17.9262 201.849 18.0984 201.659 18.0984C201.492 18.0984 201.302 18.0246 201.183 17.8516L191.101 3.97116H191.054V13.6431C191.054 15.7354 191.933 16.7443 192.837 17.0396C193.455 17.2364 193.74 17.138 193.74 17.4825C193.74 17.7039 193.597 17.7539 193.217 17.7539C192.361 17.7539 191.719 17.7039 190.72 17.7039C189.722 17.7039 189.08 17.7539 188.224 17.7539C187.843 17.7539 187.701 17.7039 187.701 17.4825C187.701 17.138 187.986 17.2364 188.604 17.0396C189.508 16.7443 190.387 15.7346 190.387 13.6431V3.10994C189.008 1.0676 187.724 1.78119 187.724 1.31367C187.724 1.043 187.891 0.969177 188.247 0.969177C188.818 0.969177 189.293 1.01839 190.054 1.01839H192.265L201.229 13.4716H201.276V5.07845H201.278Z" fill="black"/>
<path d="M207.338 2.79005C207.338 1.14063 205.364 1.92883 205.364 1.31367C205.364 1.01839 205.507 0.969177 205.888 0.969177C206.72 0.969177 207.339 1.01839 208.764 1.01839C209.739 1.01839 210.833 0.969177 212.14 0.969177C217.776 0.969177 221.223 4.39026 221.223 9.43538C221.223 14.0376 218.489 17.7539 213.139 17.7539C211.546 17.7539 210.167 17.7039 208.764 17.7039C207.339 17.7039 206.72 17.7539 205.888 17.7539C205.507 17.7539 205.364 17.7039 205.364 17.4087C205.364 16.7935 207.338 17.5809 207.338 15.9323V2.79005ZM210.191 14.948C210.191 16.5228 211.07 17.1634 212.782 17.1634C215.493 17.1634 218.084 15.8831 218.084 9.60683C218.084 4.90621 216.278 1.55894 212.639 1.55894H210.191V14.948Z" fill="black"/>
<path d="M225.118 2.79005C225.118 1.14063 223.145 1.92883 223.145 1.31367C223.145 1.01839 223.288 0.969177 223.668 0.969177C224.5 0.969177 225.119 1.01839 226.546 1.01839C227.972 1.01839 228.59 0.969177 229.422 0.969177C229.802 0.969177 229.946 1.01839 229.946 1.31367C229.946 1.92883 227.973 1.14142 227.973 2.79005V15.9323C227.973 17.5809 229.946 16.7935 229.946 17.4087C229.946 17.7039 229.802 17.7539 229.422 17.7539C228.59 17.7539 227.972 17.7039 226.546 17.7039C225.119 17.7039 224.5 17.7539 223.668 17.7539C223.288 17.7539 223.145 17.7039 223.145 17.4087C223.145 16.7935 225.118 17.5809 225.118 15.9323V2.79005Z" fill="black"/>
<path d="M235.316 11.6992C234.674 13.5947 234.365 14.3074 234.365 15.0218C234.365 17.4833 236.338 16.8919 236.338 17.4833C236.338 17.7547 236.219 17.7547 235.957 17.7547C235.458 17.7547 234.887 17.7047 233.271 17.7047C232.487 17.7047 231.725 17.7547 230.87 17.7547C230.631 17.7547 230.561 17.6555 230.561 17.4587C230.561 17.0157 231.488 17.2618 232.153 16.6713C232.772 16.1299 233.556 14.8258 234.198 13.1517C237.052 5.76822 237.456 4.85779 237.456 4.66093C237.456 4.48869 236.885 4.02117 236.885 3.72589C236.885 3.35679 237.288 3.40601 237.955 1.95423C238.454 0.871544 238.335 0.527054 238.644 0.527054C238.953 0.527054 238.929 1.33907 240.356 4.58791L245.42 16.1799C246.062 17.6317 247.179 16.9181 247.179 17.4587C247.179 17.7301 247.012 17.7547 246.775 17.7547C245.825 17.7547 244.874 17.7047 243.922 17.7047C242.971 17.7047 242.043 17.7547 241.069 17.7547C240.83 17.7547 240.689 17.6801 240.689 17.4587C240.689 16.8443 242.352 17.5579 242.352 16.2283C242.352 16.0069 242.114 15.2687 241.948 14.8988L240.593 11.7L235.316 11.6992ZM237.788 5.05464L235.554 11.1086H240.356L237.788 5.05464Z" fill="black"/>
</g>
<defs>
<clipPath id="clip0_111_464">
<rect width="248" height="18" fill="white"/>
</clipPath>
</defs>
</svg>
