<svg width="87" height="21" viewBox="0 0 87 21" fill="none" xmlns="http://www.w3.org/2000/svg">
<g clip-path="url(#clip0_111_175)">
<path d="M21.4568 10.5C21.4568 16.296 16.6504 21 10.7284 21C4.80631 21 0 16.296 0 10.5C0 4.704 4.80631 0 10.7284 0C16.6504 0 21.4568 4.704 21.4568 10.5Z" fill="#E60000"/>
<path d="M10.8142 16.352C7.86748 16.352 4.80632 13.888 4.77771 9.94C4.77771 7.336 6.20816 4.816 8.03914 3.304C9.8415 1.848 12.3019 0.923996 14.5334 0.895996C14.8195 0.895996 15.1342 0.923996 15.3058 0.979996C13.3604 1.372 11.7869 3.164 11.8155 5.18C11.8155 5.236 11.8155 5.32 11.8155 5.348C15.1056 6.16 16.5932 8.092 16.5932 10.752C16.5932 13.412 14.4476 16.352 10.8142 16.352Z" fill="white"/>
<path d="M28.3801 14.84L25.1187 7.19601H27.2358L29.2956 12.264L31.2697 7.19601H33.3295L30.1253 14.84H28.3801Z" fill="#E60000"/>
<path d="M41.0253 10.976C41.0253 11.48 40.9395 11.956 40.7964 12.46C40.6534 12.936 40.3959 13.384 40.1098 13.748C39.7951 14.14 39.4232 14.448 38.9369 14.672C38.4791 14.896 37.9069 15.008 37.2775 15.008C36.6481 15.008 36.1046 14.896 35.6182 14.672C35.1605 14.448 34.7599 14.14 34.4452 13.748C34.1305 13.356 33.9017 12.936 33.7586 12.46C33.587 11.984 33.5298 11.48 33.5298 10.976C33.5298 10.472 33.6156 9.996 33.7586 9.52C33.9017 9.044 34.1592 8.624 34.4452 8.232C34.7599 7.868 35.1319 7.56 35.6182 7.336C36.076 7.112 36.6481 7 37.2775 7C37.9069 7 38.4505 7.112 38.9082 7.336C39.366 7.56 39.7665 7.868 40.0812 8.232C40.3959 8.596 40.6248 9.044 40.7964 9.52C40.9395 9.996 41.0253 10.5 41.0253 10.976ZM39.0227 10.976C39.0227 10.668 38.9941 10.36 38.9082 10.08C38.8224 9.8 38.708 9.548 38.5649 9.352C38.4219 9.156 38.2216 8.988 38.0214 8.848C37.8211 8.708 37.5636 8.652 37.2489 8.652C36.9628 8.652 36.7054 8.708 36.4765 8.848C36.2476 8.96 36.076 9.128 35.9329 9.352C35.7899 9.548 35.6754 9.8 35.5896 10.08C35.5038 10.36 35.4752 10.668 35.4752 10.976C35.4752 11.312 35.5038 11.62 35.5896 11.9C35.6754 12.18 35.7899 12.432 35.9329 12.628C36.076 12.852 36.2762 13.02 36.4765 13.132C36.7054 13.244 36.9628 13.328 37.2489 13.328C37.535 13.328 37.7925 13.272 38.0214 13.132C38.2502 13.02 38.4219 12.852 38.5649 12.628C38.708 12.404 38.8224 12.18 38.9082 11.9C38.9941 11.62 39.0227 11.312 39.0227 10.976Z" fill="#E60000"/>
<path d="M47.2335 14.84L47.1476 14.252C46.976 14.448 46.7185 14.644 46.4324 14.784C46.1177 14.924 45.7744 15.008 45.3739 15.008C44.8303 15.008 44.3726 14.896 43.9434 14.672C43.5429 14.448 43.1996 14.14 42.9135 13.776C42.6274 13.412 42.4272 12.964 42.2841 12.488C42.1411 12.012 42.0552 11.48 42.0552 10.976C42.0552 10.472 42.1411 9.99601 42.2841 9.52001C42.4272 9.04401 42.656 8.62401 42.9707 8.23201C43.2854 7.86801 43.6573 7.56001 44.1151 7.33601C44.5728 7.11201 45.1164 7.00001 45.7458 7.00001C46.1463 7.00001 46.6041 7.08401 47.0618 7.22401V4.25601H49.0644V14.84H47.2335ZM47.0618 8.87601C46.6613 8.73601 46.318 8.65201 45.9747 8.65201C45.6314 8.65201 45.3453 8.70801 45.0878 8.84801C44.8303 8.98801 44.63 9.15601 44.487 9.35201C44.3153 9.57601 44.2009 9.82801 44.1151 10.08C44.0293 10.36 44.0007 10.64 44.0007 10.92C44.0007 11.228 44.0293 11.536 44.1151 11.844C44.1723 12.124 44.2867 12.404 44.4298 12.6C44.5728 12.824 44.7445 12.992 44.9734 13.132C45.2022 13.272 45.4597 13.328 45.7458 13.328C46.0033 13.328 46.2608 13.272 46.5182 13.132C46.7757 12.992 46.9474 12.852 47.0618 12.656V8.87601Z" fill="#E60000"/>
<path d="M54.9007 14.84L54.8149 14.28C54.586 14.504 54.3285 14.7 53.9852 14.84C53.6419 14.98 53.27 15.036 52.8694 15.036C52.5261 15.036 52.2114 14.98 51.8967 14.868C51.582 14.756 51.3246 14.588 51.0671 14.392C50.8382 14.196 50.6379 13.944 50.4949 13.636C50.3518 13.328 50.266 12.992 50.266 12.6C50.266 12.208 50.3518 11.872 50.4949 11.592C50.6379 11.312 50.8668 11.06 51.1243 10.864C51.3818 10.668 51.6965 10.5 52.0112 10.36C52.3545 10.22 52.6978 10.136 53.0697 10.08C53.3272 10.024 53.6133 9.99601 53.928 9.96801C54.2427 9.94001 54.5002 9.91201 54.7004 9.88401V9.77202C54.7004 9.35202 54.586 9.04402 54.3571 8.87602C54.1282 8.70802 53.8135 8.59602 53.4416 8.59602C53.2128 8.59602 52.9839 8.62402 52.7836 8.68002C52.5834 8.73602 52.3831 8.79202 52.24 8.87602C52.0684 8.96002 51.9253 9.04401 51.8109 9.12801C51.6965 9.21201 51.582 9.26802 51.4962 9.35202L50.8382 7.98002C50.924 7.89602 51.0671 7.81202 51.2387 7.70002C51.4104 7.58802 51.6393 7.50401 51.8967 7.39201C52.1542 7.28001 52.4403 7.19602 52.755 7.14002C53.0697 7.08402 53.413 7.02802 53.7849 7.02802C54.2141 7.02802 54.6146 7.08402 54.9579 7.19602C55.3012 7.30802 55.6159 7.47602 55.8734 7.72802C56.1309 7.95202 56.3311 8.26001 56.4742 8.62401C56.6172 8.98801 56.703 9.43602 56.703 9.94002V14.84H54.9007ZM54.7576 11.256C54.5288 11.256 54.3285 11.284 54.0996 11.312C53.8708 11.34 53.6419 11.368 53.4416 11.424C53.0125 11.508 52.6978 11.648 52.5261 11.872C52.3545 12.068 52.2687 12.292 52.2687 12.544C52.2687 12.796 52.3545 12.992 52.5547 13.16C52.755 13.328 53.0125 13.384 53.3558 13.384C53.6133 13.384 53.8708 13.328 54.1282 13.216C54.3857 13.104 54.586 12.964 54.7576 12.824V11.256Z" fill="#E60000"/>
<path d="M62.9684 5.99201C62.9112 5.96401 62.7682 5.90801 62.5965 5.85201C62.3962 5.79601 62.1674 5.76801 61.8527 5.76801C61.5666 5.76801 61.3377 5.85201 61.1374 6.02001C60.9372 6.18801 60.8514 6.44001 60.8514 6.83201V7.19601H62.5393V8.79201H60.88V14.84H58.8773V8.76401H57.7902V7.16801H58.8201V6.74801C58.8201 6.24401 58.8773 5.82401 59.0204 5.48801C59.1634 5.15201 59.3351 4.87201 59.5639 4.64801C59.7928 4.42401 60.0789 4.28401 60.3936 4.17201C60.7083 4.06001 61.0516 4.03201 61.4235 4.03201C61.9099 4.03201 62.3104 4.08801 62.6251 4.17201C62.9398 4.25601 63.1401 4.31201 63.1973 4.36801L62.9684 5.99201Z" fill="#E60000"/>
<path d="M70.4354 10.976C70.4354 11.48 70.3496 11.956 70.2065 12.46C70.0635 12.936 69.806 13.384 69.5199 13.748C69.2052 14.14 68.8333 14.448 68.3469 14.672C67.8892 14.896 67.317 15.008 66.6876 15.008C66.0582 15.008 65.5146 14.896 65.0283 14.672C64.5705 14.448 64.17 14.14 63.8553 13.748C63.5406 13.356 63.3117 12.936 63.1687 12.46C62.997 11.984 62.9398 11.48 62.9398 10.976C62.9398 10.472 63.0256 9.996 63.1687 9.52C63.3117 9.044 63.5692 8.624 63.8553 8.232C64.17 7.868 64.5419 7.56 65.0283 7.336C65.486 7.112 66.0582 7 66.6876 7C67.317 7 67.8606 7.112 68.3183 7.336C68.7761 7.56 69.1766 7.868 69.4913 8.232C69.806 8.596 70.0349 9.044 70.2065 9.52C70.3496 9.996 70.4354 10.5 70.4354 10.976ZM68.4614 10.976C68.4614 10.668 68.4327 10.36 68.3469 10.08C68.2611 9.8 68.1467 9.548 68.0036 9.352C67.8606 9.156 67.6603 8.988 67.46 8.848C67.2312 8.736 67.0023 8.652 66.6876 8.652C66.4015 8.652 66.144 8.708 65.9152 8.848C65.6863 8.96 65.5146 9.128 65.3716 9.352C65.2285 9.548 65.1141 9.8 65.0283 10.08C64.9425 10.36 64.9138 10.668 64.9138 10.976C64.9138 11.312 64.9425 11.62 65.0283 11.9C65.1141 12.18 65.2285 12.432 65.3716 12.628C65.5146 12.852 65.7149 13.02 65.9152 13.132C66.144 13.244 66.4015 13.328 66.6876 13.328C66.9737 13.328 67.2312 13.272 67.46 13.132C67.6889 13.02 67.8606 12.852 68.0036 12.628C68.1467 12.404 68.2611 12.18 68.3469 11.9C68.4041 11.62 68.4614 11.312 68.4614 10.976Z" fill="#E60000"/>
<path d="M76.6721 14.84V10.472C76.6721 9.88402 76.5577 9.43601 76.3002 9.12801C76.0427 8.82001 75.6994 8.65201 75.2703 8.65201C74.9556 8.65201 74.6695 8.73601 74.412 8.90401C74.1545 9.07201 73.9257 9.24002 73.7254 9.43602V14.84H71.7228V7.19602H73.5538L73.6396 7.81201C73.9543 7.56001 74.2976 7.36401 74.6981 7.22401C75.0986 7.08401 75.4992 7.02802 75.8997 7.02802C76.3002 7.02802 76.7007 7.08401 77.0441 7.22401C77.3874 7.33601 77.7021 7.53201 77.9309 7.81201C78.1884 8.06401 78.3601 8.42802 78.5031 8.84802C78.6462 9.26802 78.7034 9.77202 78.7034 10.36V14.84H76.6721Z" fill="#E60000"/>
<path d="M81.9362 11.508C81.9934 12.152 82.1937 12.628 82.5656 12.908C82.9375 13.188 83.4239 13.328 83.9961 13.328C84.2822 13.328 84.511 13.3 84.7685 13.244C84.9974 13.188 85.2262 13.132 85.3979 13.048C85.5696 12.964 85.7412 12.908 85.8843 12.824C86.0273 12.74 86.1131 12.684 86.1703 12.628L86.7139 14.224C86.6281 14.28 86.5136 14.336 86.342 14.448C86.1703 14.532 85.9701 14.616 85.7126 14.7C85.4551 14.784 85.169 14.84 84.8257 14.896C84.4824 14.952 84.1105 14.98 83.71 14.98C83.195 14.98 82.7087 14.896 82.2509 14.728C81.7932 14.56 81.3926 14.336 81.0493 14C80.706 13.664 80.4199 13.244 80.2197 12.74C80.0194 12.236 79.905 11.648 79.905 10.948C79.905 10.304 79.9908 9.71598 80.1911 9.23998C80.3913 8.73598 80.6488 8.31598 80.9635 7.97998C81.3068 7.64398 81.6787 7.39199 82.1079 7.19599C82.537 7.02799 83.0234 6.91599 83.5097 6.91599C83.9961 6.91599 84.4538 6.99998 84.8829 7.13998C85.3121 7.30798 85.684 7.53198 85.9701 7.86798C86.2848 8.20398 86.5137 8.62398 86.7139 9.15598C86.8856 9.68798 86.9714 10.304 86.9714 11.06V11.396H81.9362V11.508ZM84.9688 10.108C84.9402 9.85598 84.8829 9.60398 84.7971 9.40798C84.7113 9.21198 84.5969 9.04398 84.4538 8.93198C84.3108 8.81998 84.1677 8.70798 84.0247 8.65198C83.853 8.59598 83.71 8.56798 83.5383 8.56798C83.195 8.56798 82.8517 8.70798 82.537 8.95998C82.2223 9.21198 82.022 9.60398 81.9934 10.108H84.9688Z" fill="#E60000"/>
<path d="M21.4568 10.5C21.4568 16.296 16.6504 21 10.7284 21C4.80631 21 0 16.296 0 10.5C0 4.704 4.80631 0 10.7284 0C16.6504 0 21.4568 4.704 21.4568 10.5Z" fill="#E60000"/>
<path d="M10.8142 16.352C7.86748 16.352 4.80632 13.888 4.77771 9.94C4.77771 7.336 6.20816 4.816 8.03914 3.304C9.8415 1.848 12.3019 0.923996 14.5334 0.895996C14.8195 0.895996 15.1342 0.923996 15.3058 0.979996C13.3604 1.372 11.7869 3.164 11.8155 5.18C11.8155 5.236 11.8155 5.32 11.8155 5.348C15.1056 6.16 16.5932 8.092 16.5932 10.752C16.5932 13.412 14.4476 16.352 10.8142 16.352Z" fill="white"/>
<path d="M28.3801 14.84L25.1187 7.19601H27.2358L29.2956 12.264L31.2697 7.19601H33.3295L30.1253 14.84H28.3801Z" fill="#E60000"/>
<path d="M41.0253 10.976C41.0253 11.48 40.9395 11.956 40.7964 12.46C40.6534 12.936 40.3959 13.384 40.1098 13.748C39.7951 14.14 39.4232 14.448 38.9369 14.672C38.4791 14.896 37.9069 15.008 37.2775 15.008C36.6481 15.008 36.1046 14.896 35.6182 14.672C35.1605 14.448 34.7599 14.14 34.4452 13.748C34.1305 13.356 33.9017 12.936 33.7586 12.46C33.587 11.984 33.5298 11.48 33.5298 10.976C33.5298 10.472 33.6156 9.996 33.7586 9.52C33.9017 9.044 34.1592 8.624 34.4452 8.232C34.7599 7.868 35.1319 7.56 35.6182 7.336C36.076 7.112 36.6481 7 37.2775 7C37.9069 7 38.4505 7.112 38.9082 7.336C39.366 7.56 39.7665 7.868 40.0812 8.232C40.3959 8.596 40.6248 9.044 40.7964 9.52C40.9395 9.996 41.0253 10.5 41.0253 10.976ZM39.0227 10.976C39.0227 10.668 38.9941 10.36 38.9082 10.08C38.8224 9.8 38.708 9.548 38.5649 9.352C38.4219 9.156 38.2216 8.988 38.0214 8.848C37.8211 8.708 37.5636 8.652 37.2489 8.652C36.9628 8.652 36.7054 8.708 36.4765 8.848C36.2476 8.96 36.076 9.128 35.9329 9.352C35.7899 9.548 35.6754 9.8 35.5896 10.08C35.5038 10.36 35.4752 10.668 35.4752 10.976C35.4752 11.312 35.5038 11.62 35.5896 11.9C35.6754 12.18 35.7899 12.432 35.9329 12.628C36.076 12.852 36.2762 13.02 36.4765 13.132C36.7054 13.244 36.9628 13.328 37.2489 13.328C37.535 13.328 37.7925 13.272 38.0214 13.132C38.2502 13.02 38.4219 12.852 38.5649 12.628C38.708 12.404 38.8224 12.18 38.9082 11.9C38.9941 11.62 39.0227 11.312 39.0227 10.976Z" fill="#E60000"/>
<path d="M47.2335 14.84L47.1476 14.252C46.976 14.448 46.7185 14.644 46.4324 14.784C46.1177 14.924 45.7744 15.008 45.3739 15.008C44.8303 15.008 44.3726 14.896 43.9434 14.672C43.5429 14.448 43.1996 14.14 42.9135 13.776C42.6274 13.412 42.4272 12.964 42.2841 12.488C42.1411 12.012 42.0552 11.48 42.0552 10.976C42.0552 10.472 42.1411 9.99601 42.2841 9.52001C42.4272 9.04401 42.656 8.62401 42.9707 8.23201C43.2854 7.86801 43.6573 7.56001 44.1151 7.33601C44.5728 7.11201 45.1164 7.00001 45.7458 7.00001C46.1463 7.00001 46.6041 7.08401 47.0618 7.22401V4.25601H49.0644V14.84H47.2335ZM47.0618 8.87601C46.6613 8.73601 46.318 8.65201 45.9747 8.65201C45.6314 8.65201 45.3453 8.70801 45.0878 8.84801C44.8303 8.98801 44.63 9.15601 44.487 9.35201C44.3153 9.57601 44.2009 9.82801 44.1151 10.08C44.0293 10.36 44.0007 10.64 44.0007 10.92C44.0007 11.228 44.0293 11.536 44.1151 11.844C44.1723 12.124 44.2867 12.404 44.4298 12.6C44.5728 12.824 44.7445 12.992 44.9734 13.132C45.2022 13.272 45.4597 13.328 45.7458 13.328C46.0033 13.328 46.2608 13.272 46.5182 13.132C46.7757 12.992 46.9474 12.852 47.0618 12.656V8.87601Z" fill="#E60000"/>
<path d="M54.9007 14.84L54.8149 14.28C54.586 14.504 54.3285 14.7 53.9852 14.84C53.6419 14.98 53.27 15.036 52.8694 15.036C52.5261 15.036 52.2114 14.98 51.8967 14.868C51.582 14.756 51.3246 14.588 51.0671 14.392C50.8382 14.196 50.6379 13.944 50.4949 13.636C50.3518 13.328 50.266 12.992 50.266 12.6C50.266 12.208 50.3518 11.872 50.4949 11.592C50.6379 11.312 50.8668 11.06 51.1243 10.864C51.3818 10.668 51.6965 10.5 52.0112 10.36C52.3545 10.22 52.6978 10.136 53.0697 10.08C53.3272 10.024 53.6133 9.99601 53.928 9.96801C54.2427 9.94001 54.5002 9.91201 54.7004 9.88401V9.77202C54.7004 9.35202 54.586 9.04402 54.3571 8.87602C54.1282 8.70802 53.8135 8.59602 53.4416 8.59602C53.2128 8.59602 52.9839 8.62402 52.7836 8.68002C52.5834 8.73602 52.3831 8.79202 52.24 8.87602C52.0684 8.96002 51.9253 9.04401 51.8109 9.12801C51.6965 9.21201 51.582 9.26802 51.4962 9.35202L50.8382 7.98002C50.924 7.89602 51.0671 7.81202 51.2387 7.70002C51.4104 7.58802 51.6393 7.50401 51.8967 7.39201C52.1542 7.28001 52.4403 7.19602 52.755 7.14002C53.0697 7.08402 53.413 7.02802 53.7849 7.02802C54.2141 7.02802 54.6146 7.08402 54.9579 7.19602C55.3012 7.30802 55.6159 7.47602 55.8734 7.72802C56.1309 7.95202 56.3311 8.26001 56.4742 8.62401C56.6172 8.98801 56.703 9.43602 56.703 9.94002V14.84H54.9007ZM54.7576 11.256C54.5288 11.256 54.3285 11.284 54.0996 11.312C53.8708 11.34 53.6419 11.368 53.4416 11.424C53.0125 11.508 52.6978 11.648 52.5261 11.872C52.3545 12.068 52.2687 12.292 52.2687 12.544C52.2687 12.796 52.3545 12.992 52.5547 13.16C52.755 13.328 53.0125 13.384 53.3558 13.384C53.6133 13.384 53.8708 13.328 54.1282 13.216C54.3857 13.104 54.586 12.964 54.7576 12.824V11.256Z" fill="#E60000"/>
<path d="M62.9684 5.99201C62.9112 5.96401 62.7682 5.90801 62.5965 5.85201C62.3962 5.79601 62.1674 5.76801 61.8527 5.76801C61.5666 5.76801 61.3377 5.85201 61.1374 6.02001C60.9372 6.18801 60.8514 6.44001 60.8514 6.83201V7.19601H62.5393V8.79201H60.88V14.84H58.8773V8.76401H57.7902V7.16801H58.8201V6.74801C58.8201 6.24401 58.8773 5.82401 59.0204 5.48801C59.1634 5.15201 59.3351 4.87201 59.5639 4.64801C59.7928 4.42401 60.0789 4.28401 60.3936 4.17201C60.7083 4.06001 61.0516 4.03201 61.4235 4.03201C61.9099 4.03201 62.3104 4.08801 62.6251 4.17201C62.9398 4.25601 63.1401 4.31201 63.1973 4.36801L62.9684 5.99201Z" fill="#E60000"/>
<path d="M70.4354 10.976C70.4354 11.48 70.3496 11.956 70.2065 12.46C70.0635 12.936 69.806 13.384 69.5199 13.748C69.2052 14.14 68.8333 14.448 68.3469 14.672C67.8892 14.896 67.317 15.008 66.6876 15.008C66.0582 15.008 65.5146 14.896 65.0283 14.672C64.5705 14.448 64.17 14.14 63.8553 13.748C63.5406 13.356 63.3117 12.936 63.1687 12.46C62.997 11.984 62.9398 11.48 62.9398 10.976C62.9398 10.472 63.0256 9.996 63.1687 9.52C63.3117 9.044 63.5692 8.624 63.8553 8.232C64.17 7.868 64.5419 7.56 65.0283 7.336C65.486 7.112 66.0582 7 66.6876 7C67.317 7 67.8606 7.112 68.3183 7.336C68.7761 7.56 69.1766 7.868 69.4913 8.232C69.806 8.596 70.0349 9.044 70.2065 9.52C70.3496 9.996 70.4354 10.5 70.4354 10.976ZM68.4614 10.976C68.4614 10.668 68.4327 10.36 68.3469 10.08C68.2611 9.8 68.1467 9.548 68.0036 9.352C67.8606 9.156 67.6603 8.988 67.46 8.848C67.2312 8.736 67.0023 8.652 66.6876 8.652C66.4015 8.652 66.144 8.708 65.9152 8.848C65.6863 8.96 65.5146 9.128 65.3716 9.352C65.2285 9.548 65.1141 9.8 65.0283 10.08C64.9425 10.36 64.9138 10.668 64.9138 10.976C64.9138 11.312 64.9425 11.62 65.0283 11.9C65.1141 12.18 65.2285 12.432 65.3716 12.628C65.5146 12.852 65.7149 13.02 65.9152 13.132C66.144 13.244 66.4015 13.328 66.6876 13.328C66.9737 13.328 67.2312 13.272 67.46 13.132C67.6889 13.02 67.8606 12.852 68.0036 12.628C68.1467 12.404 68.2611 12.18 68.3469 11.9C68.4041 11.62 68.4614 11.312 68.4614 10.976Z" fill="#E60000"/>
<path d="M76.6721 14.84V10.472C76.6721 9.88402 76.5577 9.43601 76.3002 9.12801C76.0427 8.82001 75.6994 8.65201 75.2703 8.65201C74.9556 8.65201 74.6695 8.73601 74.412 8.90401C74.1545 9.07201 73.9257 9.24002 73.7254 9.43602V14.84H71.7228V7.19602H73.5538L73.6396 7.81201C73.9543 7.56001 74.2976 7.36401 74.6981 7.22401C75.0986 7.08401 75.4992 7.02802 75.8997 7.02802C76.3002 7.02802 76.7007 7.08401 77.0441 7.22401C77.3874 7.33601 77.7021 7.53201 77.9309 7.81201C78.1884 8.06401 78.3601 8.42802 78.5031 8.84802C78.6462 9.26802 78.7034 9.77202 78.7034 10.36V14.84H76.6721Z" fill="#E60000"/>
<path d="M81.9362 11.508C81.9934 12.152 82.1937 12.628 82.5656 12.908C82.9375 13.188 83.4239 13.328 83.9961 13.328C84.2822 13.328 84.511 13.3 84.7685 13.244C84.9974 13.188 85.2262 13.132 85.3979 13.048C85.5696 12.964 85.7412 12.908 85.8843 12.824C86.0273 12.74 86.1131 12.684 86.1703 12.628L86.7139 14.224C86.6281 14.28 86.5136 14.336 86.342 14.448C86.1703 14.532 85.9701 14.616 85.7126 14.7C85.4551 14.784 85.169 14.84 84.8257 14.896C84.4824 14.952 84.1105 14.98 83.71 14.98C83.195 14.98 82.7087 14.896 82.2509 14.728C81.7932 14.56 81.3926 14.336 81.0493 14C80.706 13.664 80.4199 13.244 80.2197 12.74C80.0194 12.236 79.905 11.648 79.905 10.948C79.905 10.304 79.9908 9.71598 80.1911 9.23998C80.3913 8.73598 80.6488 8.31598 80.9635 7.97998C81.3068 7.64398 81.6787 7.39199 82.1079 7.19599C82.537 7.02799 83.0234 6.91599 83.5097 6.91599C83.9961 6.91599 84.4538 6.99998 84.8829 7.13998C85.3121 7.30798 85.684 7.53198 85.9701 7.86798C86.2848 8.20398 86.5137 8.62398 86.7139 9.15598C86.8856 9.68798 86.9714 10.304 86.9714 11.06V11.396H81.9362V11.508ZM84.9688 10.108C84.9402 9.85598 84.8829 9.60398 84.7971 9.40798C84.7113 9.21198 84.5969 9.04398 84.4538 8.93198C84.3108 8.81998 84.1677 8.70798 84.0247 8.65198C83.853 8.59598 83.71 8.56798 83.5383 8.56798C83.195 8.56798 82.8517 8.70798 82.537 8.95998C82.2223 9.21198 82.022 9.60398 81.9934 10.108H84.9688Z" fill="#E60000"/>
</g>
<defs>
<clipPath id="clip0_111_175">
<rect width="87" height="21" fill="white"/>
</clipPath>
</defs>
</svg>
